<?xml version="1.0" standalone="no"?>
<!DOCTYPE svg PUBLIC "-//W3C//DTD SVG 20010904//EN"
 "http://www.w3.org/TR/2001/REC-SVG-20010904/DTD/svg10.dtd">
<svg version="1.0" xmlns="http://www.w3.org/2000/svg"
 width="260.000000pt" height="260.000000pt" viewBox="0 0 260.000000 260.000000"
 preserveAspectRatio="xMidYMid meet">
<metadata>
Created by potrace 1.11, written by Peter Selinger 2001-2013
</metadata>
<g transform="translate(0.000000,260.000000) scale(0.100000,-0.100000)"
fill="#000000" stroke="none">
<path d="M680 2121 c0 -47 9 -53 92 -65 26 -4 57 -15 69 -25 21 -17 22 -25 20
-132 -1 -63 -8 -211 -16 -329 -8 -118 -15 -360 -15 -537 0 -369 5 -348 -92
-377 -64 -18 -88 -41 -88 -84 0 -27 21 -61 38 -62 10 -1 703 -1 735 -1 26 1
27 3 27 49 0 65 -23 86 -119 106 -47 10 -83 24 -98 38 l-23 22 2 230 3 231
135 6 c158 7 207 18 316 70 180 85 284 244 284 434 0 221 -129 374 -371 436
-78 21 -113 23 -491 26 l-408 5 0 -41z m765 -130 c64 -28 83 -46 108 -101 18
-38 21 -65 22 -170 0 -110 -3 -131 -23 -175 -47 -103 -127 -154 -253 -162 -78
-6 -78 -6 -89 21 -6 17 -10 145 -10 323 l0 296 98 -5 c70 -3 111 -11 147 -27z"/>
</g>
</svg>
