<svg id="svg" xmlns="http://www.w3.org/2000/svg" viewBox="0 0 425.84 145.24"><defs><style>.cls-1{fill:#4a4a4a;}.cls-1,.cls-2,.cls-3,.cls-4,.cls-5{fill-rule:evenodd;}.cls-2{fill:#fbfbfb;}.cls-3{fill:#fc844d;}.cls-4{fill:#fc976a;}.cls-5{fill:#a7a7a7;}.cls-6{fill:#fff;}</style></defs><g id="svgg"><path id="path0" class="cls-1" d="M0,53.33v53.34H1V0H0V53.33m399,0v53.34h1V0h-1V53.33M174.33,17.93c-.18.47-.24,74.32-.06,75.22.12.6,1.25.79,1.47.24.14-.36.14-75.24,0-75.61s-1.21-.37-1.41.15M189.08,30c-.05.12-.06,11.72,0,25.79l0,25.59,5.22,0a39,39,0,0,0,5.54-.13c.31-.17.32-.43.37-7.11l0-6.93.58-.31c.54-.29,1.08-.31,8.17-.32h7.58l.7-.47a3.61,3.61,0,0,1,2.22-.58c1.4-.1,1.57-.15,2-.58a1.94,1.94,0,0,1,1.3-.59,2.2,2.2,0,0,0,1.08-.37,2.58,2.58,0,0,1,1.42-.74,1.75,1.75,0,0,0,.82-.54,15.84,15.84,0,0,1,1.53-1.29,8,8,0,0,0,1.4-1.32,10.7,10.7,0,0,1,.82-1,5.71,5.71,0,0,0,.74-1,1.51,1.51,0,0,1,.6-.61c.21,0,.33-.32.41-.88a2.65,2.65,0,0,1,.6-1.36,1.68,1.68,0,0,0,.48-1.38,8,8,0,0,1,.84-3.07c.4-.4.18-5.22-.28-6.12a5.19,5.19,0,0,1-.52-2.15c-.08-1.15-.14-1.35-.57-1.76a1.28,1.28,0,0,1-.47-1.08,1,1,0,0,0-.49-1,2.43,2.43,0,0,1-.7-.87,3.62,3.62,0,0,0-.66-1,2.94,2.94,0,0,1-.56-.88c-.06-.21-.2-.37-.29-.37a2,2,0,0,1-.71-.56,3.28,3.28,0,0,0-1.12-.76,3,3,0,0,1-1-.69,1.44,1.44,0,0,0-.69-.49,1.3,1.3,0,0,1-.66-.41,4.08,4.08,0,0,0-1.36-.68A4.72,4.72,0,0,1,222,31.4c-.39-.33-.66-.4-1.54-.4a2.77,2.77,0,0,1-2.35-.76l-.38-.41H203.42c-11.26,0-14.28.05-14.34.21m100,3.22c-.05.15-.1,2.09-.1,4.32,0,5.16.27,4.74-3.08,4.79l-2.49.05-.11.41a45.68,45.68,0,0,0,.05,7.8,7,7,0,0,0,2.55.2c3.38,0,3-1.27,3.08,9.86l.08,9.39.38.72a6.85,6.85,0,0,1,.57,2.14c.16,1.25.25,1.49.66,1.86a1.74,1.74,0,0,1,.58,1.19c.08.65.18.81.58,1s.48.32.48.45.31.42.68.66a2.35,2.35,0,0,1,.77.67.39.39,0,0,0,.33.24,3.36,3.36,0,0,1,1.67.94,1.27,1.27,0,0,0,1,.4c.64,0,.82.08,1.9.78.56.37.68.38,5.27.38h4.7l.5-.48a2.6,2.6,0,0,1,1.65-.68c1.13-.19,1.16-.21,1.42-.86a3.72,3.72,0,0,0-.56-3.34c-.38-.35-.49-.63-.59-1.47a2.76,2.76,0,0,0-.5-1.49,3.8,3.8,0,0,1-.56-.91c-.21-.55-.34-.55-1,0-.95.9-5.66.94-6.62.05a4.84,4.84,0,0,0-1-.69c-.45-.22-.63-.61-.63-1.34a2.77,2.77,0,0,0-.46-1.07l-.46-.66-.06-8.44c0-8.19,0-8.45.28-8.85l.33-.4,4.72-.09,4.73-.08L310,47a28,28,0,0,0-.12-4.21l-.17-.44h-9.15l-.34-.44c-.33-.41-.35-.64-.35-4.46,0-2.91-.05-4.08-.2-4.23-.34-.34-10.4-.28-10.53.06M213.48,39a4.81,4.81,0,0,0,2,.48c1.26.09,1.85.36,1.85.81,0,.22.19.3,1.09.48a5.12,5.12,0,0,1,2.28,2.56,2.78,2.78,0,0,0,.56,1c1.05,1.13,1,6.45,0,7.71a4.12,4.12,0,0,0-.57,1,1.14,1.14,0,0,1-.47.67,1.47,1.47,0,0,0-.57.59c-.15.28-.39.5-.53.5s-.39.21-.57.46a2.34,2.34,0,0,1-.95.69,2.93,2.93,0,0,0-.92.53c-.64.63-1.48.71-8.69.72l-6.94,0-.43-.4-.43-.41V48.27c0-8.71,0-9,.81-9.5s11.51-.32,12.5.2m38.6,2.36a6.54,6.54,0,0,0-1.41.51,5.42,5.42,0,0,1-2.32.48c-1.06.07-1.6.17-1.64.31-.11.31-.86.66-1.75.79a3,3,0,0,0-1.4.6,3.13,3.13,0,0,1-1.23.58c-.8.13-.89.21-1.1.9s.06,2,.4,2.13a2,2,0,0,1,.7,1.42,1.36,1.36,0,0,0,.49.83,1.89,1.89,0,0,1,.6,1.15,2.25,2.25,0,0,0,.77,1.34c.77.75.73.75,1.29.15a2.07,2.07,0,0,1,1.15-.6,1.47,1.47,0,0,0,1-.54c.27-.38.47-.44,1.6-.54s1.36-.17,1.58-.45c.55-.68.85-.72,4.93-.72s4.48,0,4.75.76c.14.35.27.4.91.4a1.28,1.28,0,0,1,1.07.35c.18.2.38.42.46.49s.7.72,1.46,1.51c.55.57.74,1.39.76,3.25s.52,1.74-7.11,1.74h-6.5l-.77.41a8.91,8.91,0,0,1-2.71.68c-1.69.23-2,.32-2.3.68a1.6,1.6,0,0,1-1.15.52c-.64.07-.85.17-1.07.55a1.34,1.34,0,0,1-.67.57.89.89,0,0,0-.55.51,1.23,1.23,0,0,1-.57.6,1.1,1.1,0,0,0-.52.5,1.65,1.65,0,0,1-.56.63c-.37.27-.49.54-.66,1.49a2.62,2.62,0,0,1-.62,1.54c-.56.53-.63,5.42-.08,5.94a3,3,0,0,1,.75,2c.1.69.2.89.61,1.12s.49.39.49.52.26.44.58.68.58.55.58.67.23.31.5.42a1.13,1.13,0,0,1,.59.51,1.45,1.45,0,0,0,.71.57,6.86,6.86,0,0,1,1.15.66,3.31,3.31,0,0,0,1.42.49,1.68,1.68,0,0,1,1.09.4,5.88,5.88,0,0,0,.38.5c.13.16,1.41.21,5.31.21h5.12l.48-.5a1.73,1.73,0,0,1,.69-.5,4.65,4.65,0,0,0,2.33-.78,3.08,3.08,0,0,1,.91-.58.9.9,0,0,0,.54-.48.82.82,0,0,1,.44-.46,1.22,1.22,0,0,0,.56-.52c.85-1.68,1.66-.85,1.75,1.8l.07,2h4.72a42.77,42.77,0,0,0,5.16-.17l.43-.16-.06-11.88c-.05-10.26-.09-12-.32-12.79a16.23,16.23,0,0,1-.36-2.9c-.09-1.82-.13-2-.51-2.42a3.09,3.09,0,0,1-.6-1.26,2.68,2.68,0,0,0-.67-1.31,2.33,2.33,0,0,1-.59-1,.92.92,0,0,0-.5-.73c-.22-.1-.4-.26-.4-.35a5.71,5.71,0,0,0-2.31-2.06,2.38,2.38,0,0,1-1-.62,1.44,1.44,0,0,0-.87-.5,2.16,2.16,0,0,1-1-.5,1.93,1.93,0,0,0-1.49-.5,3.48,3.48,0,0,1-1.85-.54l-1-.54-5.16,0c-2.85,0-5.47,0-5.84.11m80.28,0a2.45,2.45,0,0,0-1.29.51,2.11,2.11,0,0,1-1.36.45,2.16,2.16,0,0,0-1.51.56,1.9,1.9,0,0,1-.88.47,2,2,0,0,0-1.38.74c-.05.14-.4.31-.78.37a1.53,1.53,0,0,0-1.11.67c-.23.3-.52.56-.65.56s-.32.19-.45.42a1.59,1.59,0,0,1-.63.63,1.37,1.37,0,0,0-.56.56,1.3,1.3,0,0,1-.55.54,1.31,1.31,0,0,0-.56.58,1.41,1.41,0,0,1-.58.58c-.22.1-.4.29-.4.43a2.12,2.12,0,0,1-.47.79,4,4,0,0,0-.69,1.32,1.54,1.54,0,0,1-.59,1c-.46.24-.58.61-.58,1.72a1.4,1.4,0,0,1-.55,1.32l-.54.5V66.67l.48.38c.42.34.49.53.59,1.62.07.78.19,1.25.33,1.3a1.57,1.57,0,0,1,.9,1.3,2,2,0,0,0,.61,1.12,1.61,1.61,0,0,1,.51.7c0,.12.22.38.5.58s.5.46.5.58a.65.65,0,0,0,.37.44A11.89,11.89,0,0,1,322.58,76l1.59,1.54a2.34,2.34,0,0,0,1,.52,2,2,0,0,1,1,.57,1.78,1.78,0,0,0,1.13.57,2.36,2.36,0,0,1,1.18.55c.37.35.68.45,1.73.55s1.32.18,1.69.65l.41.52h12.8l.36-.48a1.43,1.43,0,0,1,1.12-.6c1.61-.22,1.85-.29,1.94-.59s.68-.59,1.62-.76c.4-.07.66-.22.72-.41a.74.74,0,0,1,.46-.42,3.28,3.28,0,0,0,.95-.67c.32-.31.9-.83,1.29-1.17,1-.83.84-1.2-1.14-3.23a2.55,2.55,0,0,1-.55-.8.77.77,0,0,0-.44-.46,1.29,1.29,0,0,1-.58-.58,1.59,1.59,0,0,0-.58-.66,1.86,1.86,0,0,1-.58-.67c-.35-.67-1.5-.74-1.74-.11a2,2,0,0,1-.71.75c-.3.19-.74.51-1,.7a3.3,3.3,0,0,1-1.37.48,2.33,2.33,0,0,0-1.37.52c-1,1-8.53.91-9.55-.06a1.42,1.42,0,0,0-1.12-.45c-.7,0-1.11-.23-1.29-.71a1,1,0,0,0-.54-.45,4.72,4.72,0,0,1-1.82-1.78.72.72,0,0,0-.43-.44,2.17,2.17,0,0,1-.75-1c-.23-.48-.59-1.16-.78-1.49-.34-.57-.35-.63-.09-1,.39-.6.88-.62,15.37-.62h15.09V60.77c0-3,0-3.6-.26-3.78a3.17,3.17,0,0,1-.84-2.26,3.29,3.29,0,0,0-.57-1.81,4.59,4.59,0,0,1-.58-1.22,2.56,2.56,0,0,0-.52-1,2.24,2.24,0,0,1-.51-.86,6,6,0,0,0-1.21-1.54c-.6-.62-1.4-1.45-1.78-1.86a3.85,3.85,0,0,0-1-.85,1.35,1.35,0,0,1-.59-.58,1.1,1.1,0,0,0-.85-.58,2.15,2.15,0,0,1-1-.53,2,2,0,0,0-1-.51,3,3,0,0,1-1.16-.58,1.63,1.63,0,0,0-1.29-.49c-.75,0-1.64-.34-1.75-.67s-8-.68-10.44-.32m8.05,8.33a2.61,2.61,0,0,1,1.67.65,2.75,2.75,0,0,0,.86.58,8.06,8.06,0,0,1,2.73,2.64,1.89,1.89,0,0,0,.56.84,3.34,3.34,0,0,1,.53,3.27l-.27.52h-9.44c-10.66,0-10.05.07-10.05-1.27,0-.85.27-1.52.67-1.65.18-.06.35-.41.48-1s.3-.94.59-1.07a1.5,1.5,0,0,0,.62-.65,1.45,1.45,0,0,1,.59-.63,1.23,1.23,0,0,0,.54-.54c.09-.21.28-.38.41-.38a2.71,2.71,0,0,0,.93-.58c.9-.75,1.5-.86,5.09-.89a31.81,31.81,0,0,1,3.49.14M264.68,64.59c1,.53.83,5.72-.24,6.13a1.25,1.25,0,0,0-.47.56,1.39,1.39,0,0,1-.57.62,1.21,1.21,0,0,0-.5.5.74.74,0,0,1-.5.4,2.58,2.58,0,0,0-.94.61c-.52.49-.73.56-1.82.67-.67.06-1.66.18-2.21.26a9,9,0,0,1-2.75-.11c-2.52-.37-2.48-.36-2.6-.73a1.27,1.27,0,0,0-.57-.58,1.15,1.15,0,0,1-.57-.65.72.72,0,0,0-.49-.5c-1.09-.27-1.11-4.33,0-5a1.51,1.51,0,0,0,.63-.7,1,1,0,0,1,.68-.58c.33-.12.59-.29.59-.37s.61-.52,1.25-.67a78.22,78.22,0,0,1,11.1.1" transform="translate(11.67 22.92)"/><path id="path1" class="cls-2" d="M1.5,53.33v53.34h397V0H1.5V53.33M176.15,17.27l.35.44V55.53c0,43,.16,38.8-1.49,38.8s-1.51,4.41-1.51-38.72V17.71l.35-.44c.28-.36.47-.44,1.15-.44s.87.08,1.15.44m-16.5,5.81c.19.19.17.29-.13.68a1.71,1.71,0,0,0-.35.67c0,.12-.21.34-.47.49a3,3,0,0,0-.79.76c-.18.27-.42.49-.53.49a2.07,2.07,0,0,0-.75.47,5.06,5.06,0,0,1-1.09.69,1.88,1.88,0,0,0-.75.5,4.09,4.09,0,0,1-.88.7,5.32,5.32,0,0,0-.88.68,1.57,1.57,0,0,1-.79.36,1.35,1.35,0,0,0-.85.53,2.24,2.24,0,0,1-.74.66,4.44,4.44,0,0,0-.89.64,2.55,2.55,0,0,1-.89.49,2.36,2.36,0,0,0-1,.56,10.3,10.3,0,0,1-2.49,1.62,2.58,2.58,0,0,0-1,.67,1.24,1.24,0,0,1-.56.47c-2.92,1.27-4.38,3.67-3.4,5.59a4.72,4.72,0,0,1-.07,3.82,8.26,8.26,0,0,0-.52,1.39c-.28,1.42-3.11,2.86-5.64,2.88l-1.83,0-.67-.62c-.37-.35-.74-.7-.83-.8s-.44-.45-.78-.79a3.53,3.53,0,0,1-.73-1,3.75,3.75,0,0,0-.51-.92,5.07,5.07,0,0,1-.55-1c-.26-.68-2.41-.69-3.39,0-.57.39-.86.46-2.51.55s-2.78.37-2.78.67-1.25.49-2.51.55a3.77,3.77,0,0,0-2.07.54,4.5,4.5,0,0,1-2.49.58,5.7,5.7,0,0,0-2.53.54,5.46,5.46,0,0,1-2.26.55c-1.75.14-1.8.18-2.46,1.91a9.41,9.41,0,0,0-.67,3.5c-.16,2.5-.16,2.5,1.57,2.5,1.1,0,1.22,0,1.67.5a1.67,1.67,0,0,0,.71.5,2.46,2.46,0,0,1,1.62,1,3.72,3.72,0,0,0,.46.69,2.38,2.38,0,0,1,.79,1.88,2.42,2.42,0,0,0,.5,1.58c.49.72.5.76.5,2.93s0,2.21-.5,2.93a2.39,2.39,0,0,0-.5,1.5A2.18,2.18,0,0,1,111,70.6a13.06,13.06,0,0,0-.71,1.14,7.41,7.41,0,0,1-2,2.09c-.1,0-.33.19-.51.42a2.52,2.52,0,0,1-1.15.67,2.82,2.82,0,0,0-1.12.58c-.52.56-1.36.67-5.52.67h-4l-.65-.45A6.1,6.1,0,0,0,94,75.06a3.67,3.67,0,0,1-1.09-.55,3.68,3.68,0,0,0-1-.58,2.78,2.78,0,0,1-.91-.64,3.65,3.65,0,0,0-.77-.69c-.25-.17-.46-.39-.46-.5a1.63,1.63,0,0,0-.48-.67,3.13,3.13,0,0,1-.68-1.18A2.92,2.92,0,0,0,88,69.09c-.44-.39-.48-.52-.48-1.58a3.45,3.45,0,0,0-.42-1.94,2.65,2.65,0,0,1,0-2.82,2.78,2.78,0,0,0,.42-1.58,2.46,2.46,0,0,1,.38-1.49l.55-.87a27.16,27.16,0,0,1,2.49-2.64,1.71,1.71,0,0,1,2.15-.24,1.52,1.52,0,0,1-.28,2,8,8,0,0,0-1.86,2.15,4.08,4.08,0,0,1-.6,1,2.28,2.28,0,0,0-.5,1c0,.22-.09.91-.19,1.55-.32,1.86.24,4.92,1,5.4a.48.48,0,0,1,.21.38c0,.48,2.82,3,3.56,3.25a3.53,3.53,0,0,1,1.16.59c.75.63,7.41.62,8.35,0a3.7,3.7,0,0,1,1-.51,4.3,4.3,0,0,0,1.73-1.57,7.57,7.57,0,0,1,.87-1,1.9,1.9,0,0,0,.55-1,2.19,2.19,0,0,1,.5-1c.63-.63.92-6.2.41-7.74A8.71,8.71,0,0,0,106.33,58a6.73,6.73,0,0,1-1.9-2c-.16-.51-.47-.47-.82.13-.16.27-.35.5-.42.5a3.34,3.34,0,0,0-.8.57c-.63.54-.88.63-3.18,1.21-1.46.36-4.52-1.55-4.9-3.07a3.75,3.75,0,0,0-.59-1.22c-.35-.41-.42-.72-.5-2-.14-2.21.06-2.06-2.92-2.18a12.21,12.21,0,0,1-3.52-.43c-1.13-.4-2.49-.47-11.9-.61-6.88-.1-6.12-.2-7.15,1A2.78,2.78,0,0,0,67.25,51c-.16,1-2.6,3.41-3.6,3.57a3.18,3.18,0,0,0-1.23.6l-.63.5H56.37l-.88-.86c-1-1-1.3-2-1.32-4.92,0-3.67-1.61-6.14-5.12-7.91a5.59,5.59,0,0,1-1.23-.75.74.74,0,0,0-.51-.23,1.43,1.43,0,0,1-.74-.48,2.48,2.48,0,0,0-1.16-.67,1.79,1.79,0,0,1-1-.56,3.62,3.62,0,0,0-.92-.79,2.15,2.15,0,0,1-.68-.54c0-.07-.25-.23-.56-.36C41.11,37.12,39.74,35,39.92,34c.12-.77.48-1,.87-.51a.87.87,0,0,0,.51.33,2.36,2.36,0,0,1,.84.58,10.18,10.18,0,0,0,2.16,1.76,3.33,3.33,0,0,1,.87.58,3.67,3.67,0,0,0,.82.58,3.91,3.91,0,0,1,.77.59,2.26,2.26,0,0,0,1,.58,1.53,1.53,0,0,1,.85.46,6.8,6.8,0,0,0,1.25.87l1.58.84a10,10,0,0,1,1.26.79c.73.58,1.45.5,1.83-.2a1.69,1.69,0,0,1,.53-.66c.12,0,.3-.4.41-.79s.51-1,1.58-2.08l1.4-1.39,1.38-.17a12.6,12.6,0,0,1,2.88,0c.83.09,1.62.16,1.76.16a3.19,3.19,0,0,1,1,.52,6.15,6.15,0,0,0,1.56.7c1.34.34,1.78,1.45,1.89,4.82.09,2.84.13,3,1.17,3.22a1.85,1.85,0,0,1,.66.32c.47.4,1.92.6,5.6.74a18.81,18.81,0,0,1,4.08.36c1,.53,6.91.48,8.19-.08a5.23,5.23,0,0,1,1.78-.26c1.22,0,1.85-.4,1.85-1.16a.72.72,0,0,1,.18-.45c.12-.12.11-.31,0-.63-.33-.86-.3-4,0-4.38a6.52,6.52,0,0,0,.66-.86,2.06,2.06,0,0,1,1-.78,3.19,3.19,0,0,0,.93-.48c.7-.64,4.95-.76,5.76-.18l.92.65c1.47,1,2.78,2.7,2.92,3.81a7.65,7.65,0,0,0,1.31,3,5.72,5.72,0,0,0,3-.45,8.38,8.38,0,0,1,3-.52c2.27-.13,3.37-.33,3.75-.68a6.57,6.57,0,0,1,1.9-.48,6.93,6.93,0,0,0,1.91-.48,3.63,3.63,0,0,1,1.83-.61,3.64,3.64,0,0,0,1.92-.59,2.52,2.52,0,0,1,1.66-.58,1.58,1.58,0,0,0,1.29-2.21c-.92-2.81-.2-5.79,1.39-5.79a1.4,1.4,0,0,0,.69-.48,1.56,1.56,0,0,1,1.13-.55,4.65,4.65,0,0,0,2.13-.87c.87-.51,4-.47,4.61,0a6.22,6.22,0,0,0,1,.65A10.69,10.69,0,0,1,139.05,33c1.27,1.21,2.3,1.39,2.9.53a2.4,2.4,0,0,1,.85-.62,5.68,5.68,0,0,0,1.12-.64,2,2,0,0,1,.72-.41,2.66,2.66,0,0,0,.84-.58,3,3,0,0,1,1.15-.68,2,2,0,0,0,.94-.59,1.46,1.46,0,0,1,.68-.48c.13,0,.4-.22.61-.5a2.3,2.3,0,0,1,1-.69,3.63,3.63,0,0,0,1.14-.67,2,2,0,0,1,.77-.47,1.3,1.3,0,0,0,.61-.43,4.25,4.25,0,0,1,1.08-.73,4.85,4.85,0,0,0,1.18-.75c.26-.24.75-.66,1.07-.93l1.12-1a2.41,2.41,0,0,1,2.86-.26m58.73,6.41c.25.13.45.3.45.38,0,.3,1.2.63,2.33.63s1.2,0,1.62.5a1.46,1.46,0,0,0,.81.5,2.19,2.19,0,0,1,1.64.74,1.36,1.36,0,0,0,.7.5,3.46,3.46,0,0,1,1,.59,3.72,3.72,0,0,0,1,.57,1.24,1.24,0,0,1,.58.52,1.61,1.61,0,0,0,.64.63,1.53,1.53,0,0,1,.61.57,2.55,2.55,0,0,0,.6.7,2.42,2.42,0,0,1,.63,1,2.1,2.1,0,0,0,.6.92,1.91,1.91,0,0,1,.56,1c.1.42.25.76.32.76.29,0,.7,1,.7,1.74a3.49,3.49,0,0,0,.73,2.18c.61.61.61,7.69,0,8.52a4,4,0,0,0-.73,2.34,1.37,1.37,0,0,1-.42,1.15,2.59,2.59,0,0,0-.57,1.12,2.09,2.09,0,0,1-.66,1.11,2.18,2.18,0,0,0-.59.76,2.46,2.46,0,0,1-.49.76,5,5,0,0,0-.66.94,2.54,2.54,0,0,1-.65.75c-.21.15-.64.5-1,.79a2.87,2.87,0,0,1-1,.62.79.79,0,0,0-.56.42,1.4,1.4,0,0,1-.71.58,4.17,4.17,0,0,0-1,.63,3.31,3.31,0,0,1-1.47.58,2.27,2.27,0,0,0-1.44.64c-.34.4-.52.44-1.93.53q-1.55.09-1.62.3c-.22.67-.72.71-8.82.71-6.22,0-7.86,0-8.09.23s-.29.75-.29,7.15v6.94l-.38.21c-.55.32-11.58.41-12,.1s-.46-52,0-52.41,28.89-.24,29.59.1m81.5,2.68c.89.7.95,1,.95,5.33v4l.43.19a25.12,25.12,0,0,0,4.6.19c3.79,0,4.21,0,4.41.29.33.44.33,8.64,0,9-.18.18-1.18.24-4.62.29a43.74,43.74,0,0,0-4.61.18c-.35.23-.29,15.56.06,16.87a16.11,16.11,0,0,1,.38,1.91c.1.87.13.91.7,1a3,3,0,0,1,1.06.55c.73.62,4.33.62,4.92,0s2.34-.72,2.34,0c0,.13.22.4.49.6s.51.52.59,1.3c.17,1.53.26,1.83.58,1.93s.61.72.73,1.74a1.75,1.75,0,0,0,.35.94c.71.52-.69,2.32-1.89,2.44a1.91,1.91,0,0,0-1.27.5c-.6.6-.91.63-6.31.61s-5.78-.06-6-.59-.55-.55-1.48-.55a1.25,1.25,0,0,1-1-.41,3.58,3.58,0,0,0-1.07-.68,8.66,8.66,0,0,1-1.89-1.43A9.09,9.09,0,0,0,291,77.17a2.14,2.14,0,0,1-.33-.94c-.14-.66-.28-1-.5-1-.37-.1-.61-.71-.71-1.81A2.82,2.82,0,0,0,289,72l-.4-.56,0-9.82c0-6.83-.1-9.89-.23-10.05s-.81-.22-2.66-.22c-3.45,0-3.18.42-3.12-4.85.06-5.09-.24-4.65,3.14-4.65,3.12,0,2.83.48,2.83-4.7,0-4.17,0-4.33.36-4.8l.37-.5h5.11c4.88,0,5.13,0,5.54.34M201.43,40c-.43.83-.39,16,0,16.41.27.25.89.28,5.54.26,7.35,0,8.45-.11,9-.69a2.13,2.13,0,0,1,1.13-.56,1.14,1.14,0,0,0,1-.59c.16-.26.35-.48.43-.48a4.59,4.59,0,0,0,1.71-2.06,2.73,2.73,0,0,1,.6-1.1l.5-.55-.06-2.52c-.05-2.46-.06-2.53-.48-2.94a2.45,2.45,0,0,1-.56-1.07A2.37,2.37,0,0,0,219.7,43a11.48,11.48,0,0,1-.86-1,3.4,3.4,0,0,0-1.19-.85,1.69,1.69,0,0,1-.89-.66c-.08-.26-.29-.37-.81-.43a82.88,82.88,0,0,0-9.48-.56l-4.78-.06-.26.5m63.31,1.21c.35.38.61.46,1.66.56s1.32.19,1.71.58a2.63,2.63,0,0,0,1,.58,2.69,2.69,0,0,1,1,.5,6,6,0,0,0,1,.64,2.58,2.58,0,0,1,.8.69c.15.23.38.43.51.43s.32.21.44.48a2,2,0,0,0,.68.76c.26.15.47.37.47.47a3.13,3.13,0,0,0,.57.91,4.75,4.75,0,0,1,.74,1.45,2.11,2.11,0,0,0,.36.84c.46.29.73,1.26.84,3.07a7.64,7.64,0,0,0,.28,2c.61.4.63.6.68,13.34,0,6.82,0,12.57,0,12.78-.16.63-1,.73-6.22.73-6,0-5.54.2-5.54-2.5,0-1.91-.25-2.42-.69-1.43a1.39,1.39,0,0,1-.58.57c-.22.11-.4.3-.4.44s-.21.35-.46.46a3.81,3.81,0,0,0-1,.72,1.89,1.89,0,0,1-1.35.62,2.19,2.19,0,0,0-1.31.52c-.63.58-1.15.63-7,.57l-5.12,0-.46-.44a2.88,2.88,0,0,0-1.55-.62,2.62,2.62,0,0,1-1.59-.69,1.88,1.88,0,0,0-.7-.5c-.11,0-.37-.22-.58-.48a2.81,2.81,0,0,0-.75-.67,1,1,0,0,1-.47-.51.73.73,0,0,0-.43-.43,1.28,1.28,0,0,1-.56-.68c-.14-.31-.32-.57-.42-.57-.4,0-.84-.68-.84-1.31a1.9,1.9,0,0,0-.51-1.28l-.51-.64.05-3.35.05-3.35.46-.55a1.71,1.71,0,0,0,.46-1.17c0-.6.47-1.35.84-1.35.09,0,.26-.19.36-.43a1.79,1.79,0,0,1,.67-.67c.25-.13.46-.35.46-.49s.25-.4.56-.58a2.47,2.47,0,0,0,.77-.73c.16-.3.41-.43,1-.51a1.7,1.7,0,0,0,1.1-.52c.26-.32.59-.45,1.48-.59a12.5,12.5,0,0,0,2.25-.62l1.1-.44,7.17-.08,7.17-.09,0-1.53c.05-1.49,0-1.54-.45-2.1a2.07,2.07,0,0,1-.51-.85c0-.15-.23-.41-.51-.58a2.82,2.82,0,0,1-.76-.67.89.89,0,0,0-.66-.35c-.61,0-1.57-.44-1.57-.72,0-.76-8.18-.89-8.46-.14-.18.49-.58.65-1.91.77-1.1.1-1.34.17-1.55.49a2,2,0,0,1-1,.59,3.25,3.25,0,0,0-1.16.64c-1,.92-2.71.07-3.05-1.49a2.93,2.93,0,0,0-.6-1.1,1.92,1.92,0,0,1-.48-1,1.91,1.91,0,0,0-.5-1,2.78,2.78,0,0,1-.5-.71,3.78,3.78,0,0,0-.59-1.63c-.21-.22-.19-.32.17-.87a2.45,2.45,0,0,0,.42-.82c0-.22.6-.5,1.46-.67a1.13,1.13,0,0,0,.67-.33,2.38,2.38,0,0,1,1.66-.75,1.32,1.32,0,0,0,.87-.32,2.21,2.21,0,0,1,1.87-.68,4.3,4.3,0,0,0,2.55-.55c.39-.52,1.32-.59,7.88-.56l6.54,0,.41.44m78.61,0c.43.41.7.51,1.66.6s1.2.19,1.55.58a1.9,1.9,0,0,0,1.08.57,2.28,2.28,0,0,1,1.06.5,4.18,4.18,0,0,0,.9.64,2.58,2.58,0,0,1,.8.69c.15.23.38.43.5.43s.6.35,2.31,2.11a2.83,2.83,0,0,1,.62.82c0,.09.23.34.5.54s.5.48.5.62a1.56,1.56,0,0,0,.48.71,2.06,2.06,0,0,1,.6,1.11,2.49,2.49,0,0,0,.62,1.19c.44.47.51.68.62,1.91.07.84.2,1.41.32,1.45.78.26,1.13,8.8.37,9.2-.21.11-5.25.17-15.15.17-15.65,0-15.47,0-14.65.76a2.65,2.65,0,0,1,.62,1.21,1.47,1.47,0,0,0,.6,1c.22.11.41.28.41.35a7.42,7.42,0,0,0,1.8,1.79,1.72,1.72,0,0,1,.6.67c.23.42.35.47,1.33.55a2.45,2.45,0,0,1,1.61.53l.52.43h3.4c3.2,0,3.42,0,3.74-.34a2.37,2.37,0,0,1,1.67-.66c.55,0,1.33-.31,1.33-.53s.41-.34.91-.57a2.49,2.49,0,0,0,.92-.56c0-.87,2.17-1,2.67-.11a2.41,2.41,0,0,0,.75.77c.23.13.41.28.41.35A9.37,9.37,0,0,0,352.46,72c2.81,2.9,3,3.31,2.34,4.36a4.27,4.27,0,0,1-1.13,1.15,4.48,4.48,0,0,0-.91.68,1,1,0,0,1-.53.34,2.17,2.17,0,0,0-.8.58,2.23,2.23,0,0,1-1.28.69,1.83,1.83,0,0,0-1.1.57,1.59,1.59,0,0,1-1.29.53,2.22,2.22,0,0,0-1.41.51c-.73.61-1.18.65-8.22.59l-6.29,0-.42-.45a1.81,1.81,0,0,0-1.37-.55c-1.43-.15-1.69-.23-2-.58a3.48,3.48,0,0,0-1.18-.58,4.26,4.26,0,0,1-1.35-.67,3.06,3.06,0,0,0-1-.53c-.47-.12-.86-.44-.86-.69,0-.08-.19-.23-.41-.34a1.85,1.85,0,0,1-.68-.6,3.11,3.11,0,0,0-.84-.75c-.32-.18-.57-.45-.57-.59s-.09-.26-.19-.26a5.81,5.81,0,0,1-1.81-1.88c0-.14-.27-.44-.59-.69A1.08,1.08,0,0,1,318,71.7c0-.71-.08-.85-.71-1.25-.4-.25-.46-.4-.46-1.1a1.91,1.91,0,0,0-.48-1.42c-.59-.73-.64-1.07-.76-4.6-.13-3.79.09-7.8.43-8.06a2.71,2.71,0,0,0,.81-2,1.31,1.31,0,0,1,.59-1.25A1.28,1.28,0,0,0,318,51a1.21,1.21,0,0,1,.58-1.07,1.73,1.73,0,0,0,.59-.77c0-.15.22-.43.5-.64s.5-.44.5-.52a6.93,6.93,0,0,1,1.76-1.78c.09,0,.34-.23.54-.5s.48-.5.62-.5.33-.18.43-.4a1.85,1.85,0,0,1,.83-.69,3.18,3.18,0,0,0,.92-.61,3,3,0,0,1,1.06-.54,3.49,3.49,0,0,0,1.23-.65,2.47,2.47,0,0,1,1.62-.53c.91-.09,1.2-.19,1.33-.44.31-.57.8-.62,6.62-.63h5.71l.51.49M148.94,45.62l1.34.74a5.94,5.94,0,0,1,1.17.83c.57.62.76.81,1.37,1.43a2.25,2.25,0,0,1,.7,1.43,3.72,3.72,0,0,0,.45,1.28,4.26,4.26,0,0,1,0,4.25,8.57,8.57,0,0,0-.48,2.38c-.15,1.61-.2,1.75-.67,2.19a1.31,1.31,0,0,0-.52,1.09,1.24,1.24,0,0,1-.39,1,4.67,4.67,0,0,0-.75,1.06,3,3,0,0,1-.52.8,2.59,2.59,0,0,0-.5.72,11.93,11.93,0,0,1-2.55,2.72,2.81,2.81,0,0,1-2,.66,6.09,6.09,0,0,0-2.69.64c-.81.67-5.73.54-7.13-.19a4.91,4.91,0,0,0-1.58-.43c-.72-.06-1-.16-1.28-.53a2.08,2.08,0,0,0-.7-.57,3.46,3.46,0,0,1-.91-.61c-.32-.28-.75-.63-1-.78a3.13,3.13,0,0,1-.78-1,5.09,5.09,0,0,0-.82-1.17,1.21,1.21,0,0,1-.44-1,1.32,1.32,0,0,0-.58-1.11c-.55-.5-.58-.6-.58-1.57a16.47,16.47,0,0,0-.19-2.15c-.29-1.75.2-4.88.87-5.59l1.29-1.39c.92-1,1.05-1,1.62-.47s.36,2.54-.44,3.41c-1,1.07-.94,6.31.09,7.54a1.78,1.78,0,0,1,.42.76,2.17,2.17,0,0,0,.5.83,2,2,0,0,1,.5.8c0,.51,1.72,2,2.42,2.14a1.78,1.78,0,0,1,1.07.57l.4.46h6.7l.6-.46a2.22,2.22,0,0,1,1-.46,3.41,3.41,0,0,0,1.63-.46,6.61,6.61,0,0,1,.91-.69,3,3,0,0,0,1.06-1.16,8.79,8.79,0,0,1,1.79-2.35,2.22,2.22,0,0,0,.52-1.17,4,4,0,0,1,.59-1.44,2.42,2.42,0,0,0,.49-1.42,8.29,8.29,0,0,1,.17-1.47c.6-2.69.32-6.34-.5-6.63a11,11,0,0,1-1.18-.63c-.89-.53-1-.55-3.25-.63-3.09-.12-3.14-.14-3-1.42.12-.9.43-1,3.05-1,1.69,0,2.19,0,2.61.27m184.18,4.81c-.25.13-.45.31-.45.39a2.23,2.23,0,0,1-.84.48,2.28,2.28,0,0,0-.94.61,1.31,1.31,0,0,1-.58.52c-.26.13-.48.35-.48.48a1.32,1.32,0,0,1-.48.63,1.71,1.71,0,0,0-.59,1.08,1.94,1.94,0,0,1-.61,1.12,1.07,1.07,0,0,0-.45,1.14l.05.7h18.5V56.46c0-1-.06-1.15-.44-1.45a1.7,1.7,0,0,1-.54-.77,10.78,10.78,0,0,0-3.15-3.08c-.38-.19-1-.49-1.28-.67-.77-.43-6.93-.48-7.71-.06m-280,3.29c.3.32.43,1.4.19,1.61a15.62,15.62,0,0,1-2,1.25A10.73,10.73,0,0,0,49,58.84a2.25,2.25,0,0,1-.48.7,3.92,3.92,0,0,0-.68,1.21,3.39,3.39,0,0,1-.53,1c-1,1.08-.93,5.36.07,6.43a2.57,2.57,0,0,1,.52,1,5.21,5.21,0,0,0,1.89,2.3,1.88,1.88,0,0,1,.66.39,4.92,4.92,0,0,0,1.38.69,4.69,4.69,0,0,1,1.17.51c.85.72,4.83.8,6.12.12a9.41,9.41,0,0,1,1.74-.63,4.82,4.82,0,0,0,1.52-.68,2.06,2.06,0,0,1,.6-.4,19.22,19.22,0,0,0,2.85-2.78c0-.1.25-.37.56-.61A1.47,1.47,0,0,0,67.05,67a2.17,2.17,0,0,1,.56-1.19c.45-.46.48-.58.53-2.21l.06-1.71L67.31,61c-1.76-1.71-1.88-1.79-2.63-1.91-1.44-.22-1.54-.68-.3-1.45.92-.57,1.54-.64,2.17-.25a3.68,3.68,0,0,0,.78.36A6.7,6.7,0,0,1,69.57,60c.15.29.34.53.42.53,1,0,.82,6.81-.14,7.41a2.73,2.73,0,0,0-.45.88,6.15,6.15,0,0,1-.68,1.31,2.12,2.12,0,0,0-.39.7,9.31,9.31,0,0,1-2,2,4,4,0,0,0-.83.5,2.55,2.55,0,0,1-1,.5,2.08,2.08,0,0,0-.89.52c-.51.45-.75.53-1.9.63a3.63,3.63,0,0,0-2,.6c-1.27.84-5,.82-6,0A3,3,0,0,0,51.8,75c-1.18-.12-1.4-.2-1.82-.63a2.36,2.36,0,0,0-.94-.58c-1-.21-3.17-2.48-3.63-3.8a2.43,2.43,0,0,0-.5-.91c-1.1-.83-1.09-7.43,0-8.11a1.39,1.39,0,0,0,.31-.73c.14-.7.43-1.23.69-1.23.1,0,.38-.36.62-.79a14.9,14.9,0,0,1,3.64-3.77,6.34,6.34,0,0,0,1.14-.86,1.68,1.68,0,0,1,1.78.14M253.7,65.11a3.37,3.37,0,0,0-.65.49,2.43,2.43,0,0,1-1,.5c-.4.07-.58.21-.65.49a1.12,1.12,0,0,1-.47.6c-.58.3-.62.45-.62,2.14s0,1.81.58,2.1a1.35,1.35,0,0,1,.49.54,1,1,0,0,0,.46.46,1.74,1.74,0,0,1,.63.52c.71.91,7.24.91,8.32,0a3.58,3.58,0,0,1,.88-.56,5.3,5.3,0,0,0,1.8-1.66c0-.09.22-.3.48-.45l.48-.29.12-2.35c.1-1.91.08-2.38-.1-2.5s-10.41-.19-10.78,0M153.67,69c.94.33,2.16,1.45,2.16,2a1.49,1.49,0,0,0,.4.69,2.19,2.19,0,0,1,.54,2.12c-.33,1-.53,1-1.05.2a16.67,16.67,0,0,0-2.43-3c-1.61-1.62-1.42-2.61.38-2m-26.51.66a1.59,1.59,0,0,1-.41,1.93l-1,1.16a6.46,6.46,0,0,0-.74,1.08,3.67,3.67,0,0,1-.65.9,1.09,1.09,0,0,0-.35.52c0,.48-.78.94-1.52.89-.94-.07-1.12-.81-.41-1.65a3.76,3.76,0,0,0,.6-1.16,2.4,2.4,0,0,1,.48-1,4.14,4.14,0,0,0,.6-.86c.88-1.74,2.89-2.84,3.41-1.86M38.29,70.72c.34.34.07.7-.63.84a2.09,2.09,0,0,0-.92.52,2,2,0,0,1-1.44.75,2.58,2.58,0,0,0-1,.44,2.47,2.47,0,0,1-2.54.31l-.45-.29.49-.4a2,2,0,0,1,.67-.39c.09,0,.33-.21.53-.48a1.41,1.41,0,0,1,.95-.57,3,3,0,0,0,1.21-.63,3.11,3.11,0,0,1,3.17-.1m102.86,5.42a3.23,3.23,0,0,0,.42,1.19,6.88,6.88,0,0,1,.55,3.22c-.16,1.13-.48,1.28-1.25.58a4.8,4.8,0,0,0-.87-.66c-.55-.18-.47-5,.09-5.65l.32-.35.27.34a4,4,0,0,1,.47,1.33m-56.31.28c.17.21.14.33-.17.66a2.09,2.09,0,0,0-.46,1.14c-.11,1-2.51,3.61-3.28,3.61a.64.64,0,0,0-.54.25c-.16.43-.35.28-.42-.34a.94.94,0,0,1,.14-.76,3.22,3.22,0,0,0,.5-1c1-2.57,3.39-4.62,4.23-3.61M47.52,77.77a5.06,5.06,0,0,1,.29,1.89l.06,1.63-1.46,1.45L45,84.19l-.39-.39a2,2,0,0,1,.24-2.35,2.89,2.89,0,0,0,.52-1,2.63,2.63,0,0,1,.58-1.06,3,3,0,0,0,.61-.91c.39-1,.62-1.13,1-.67M61.24,79.7c.43.62.38,6.22-.06,6.46-1,.55-1.18.11-1.18-3.33s.37-4.36,1.24-3.13m49,2a3.56,3.56,0,0,0,.67,1.15c.85,1,.85,2.32,0,2.32-.47,0-.69-.14-1.25-.79l-1.15-1.33a2.89,2.89,0,0,1-.17-3.18c.24-.28,1.75,1.19,1.89,1.83m-11.53,0c.22.33.27.88.27,2.73,0,2.74-.15,3.07-1.37,3.1-1,0-1.12-.35-1.13-2.55V83.29l.58-.55a2.92,2.92,0,0,0,.59-.67.57.57,0,0,1,1.06-.33m13.5,3.85c.13.33-.38.54-.57.23a.4.4,0,0,1-.06-.35c.14-.23.52-.15.63.12" transform="translate(11.67 22.92)"/><path id="path2" class="cls-3" d="M158.38,23.28a.36.36,0,0,0-.21.33c0,.28-1,.72-1.57.72-.3,0-.42.1-.46.38a1,1,0,0,1-.58.62,1.56,1.56,0,0,0-.68.69.92.92,0,0,1-.63.55,2.37,2.37,0,0,0-.93.61,1.26,1.26,0,0,1-1,.49c-.49,0-.61.07-.75.49s-.33.53-.87.67a3.11,3.11,0,0,0-1.17.68,1.51,1.51,0,0,1-.89.49c-.31,0-.43.11-.51.49s-.21.5-.77.59c-.36.07-.65.18-.65.26,0,.25-1.22,1-1.63,1-.25,0-.37.1-.37.3a.72.72,0,0,1-.78.7,2.07,2.07,0,0,0-1,.53c-1.14,1-3.88,1-4.38-.07-.12-.25-.29-.46-.38-.46a2.46,2.46,0,0,1-.74-.58,2,2,0,0,0-.89-.58,1.63,1.63,0,0,1-.78-.5c-.7-.7-3.23-.77-3.54-.1a2.23,2.23,0,0,1-1.89.76,1.76,1.76,0,0,0-1,.5,1.58,1.58,0,0,1-1,.5.82.82,0,0,0-.76.5c-.17.28-.43.5-.6.5-.38,0-.45,3.06-.07,3.29,1.64,1,.67,3.5-1.47,3.79a1.71,1.71,0,0,0-1.17.52c-.27.32-.55.43-1.42.52s-1.14.19-1.37.48-1.76.74-3.2.74c-.64,0-.86.07-1.11.4-.43.55-1.55.76-3.94.76-1.74,0-2,0-2.31.35-.51.49-1.36.65-3.45.65-2.88,0-3.2-.33-3.33-3.41,0-.91-.07-1-.43-1.06s-.46-.24-.61-.59a1.55,1.55,0,0,0-.64-.73.85.85,0,0,1-.47-.57c0-.3-.19-.4-.67-.48a1.94,1.94,0,0,1-1.35-.78c-.32-.5-3.33-.27-3.87.29s-.59.5-1.36.5-.89,0-1,.38a12.2,12.2,0,0,0-.2,3.89c.15,2.15,0,3.11-.6,3.42a3.52,3.52,0,0,0-.79.64c-1,1.09-16,1.15-17.17.07a5.06,5.06,0,0,0-2-.32c-2.9-.16-3.13-.21-3.76-.84a2,2,0,0,0-.81-.57c-.48,0-.59-.66-.59-3.66V39l-.5-.26c-.27-.14-.5-.36-.5-.48s-.3-.27-.86-.34c-1-.14-1.41-.32-1.55-.77s-.23-.33-2.88-.29l-2.76.05-.28.5a1,1,0,0,1-.7.55c-.32,0-.45.17-.52.53s-.2.49-.56.53-.47.11-.52.88-.23,1.21-.8,1.43a.72.72,0,0,0-.43.53c-.12.84-2.6.84-3,0-.17-.36-.37-.47-1-.56-.95-.14-1.11-.23-1.31-.74a.55.55,0,0,0-.5-.4,2.46,2.46,0,0,1-1.53-.82A1.1,1.1,0,0,0,46.9,39c-.32,0-.47-.12-.61-.47s-.35-.52-1-.71a1.85,1.85,0,0,1-1-.57.87.87,0,0,0-.9-.58c-.28,0-.4-.12-.47-.49a.62.62,0,0,0-.57-.57.81.81,0,0,1-.64-.62c-.23-.67-.48-.51-.39.25a.91.91,0,0,0,.55.85c.27.14.48.36.48.5s.29.37.63.53.64.43.68.67.16.38.49.38a1.61,1.61,0,0,1,1,.52,2.77,2.77,0,0,0,1.09.62A1,1,0,0,1,47,40c.22.47.33.53.92.54.75,0,.95.1,1.21.6.13.23.48.41,1.11.55s1,.3,1.18.7.39.48.55.48a.71.71,0,0,1,.7.67c0,.15.24.38.54.51a.77.77,0,0,1,.58.82c.08,1,.2,1.34.44,1.34.58,0,.69.5.77,3.73l.08,3.18,1.06,1,1.06,1.05H59c1.73,0,1.86,0,2.14-.39A3.12,3.12,0,0,1,63.12,54a2.23,2.23,0,0,0,1-.58,2.23,2.23,0,0,1,.92-.59c.16,0,.35-.2.45-.48a.69.69,0,0,1,.64-.55c.46,0,.48-.08.57-1.29s.7-2.18,1.34-2.18c.07,0,.17-.15.23-.33.15-.49,3.65-.51,4.27,0,.37.29.89.32,8.15.4,8,.09,9.48.21,11,.86a3.55,3.55,0,0,0,1.1.26c.66,0,.8.24,1,1.58a4.1,4.1,0,0,0,.5,1.75,4.42,4.42,0,0,1,.49,1.55c.07.67.18.95.35.95s.4.27.59.59.45.58.57.58.4.22.6.5c.51.69,3.55.78,4.19.12a3,3,0,0,1,1.51-.82c.18,0,.39-.3.52-.67a2.44,2.44,0,0,1,.61-1c.38-.3.4-.43.48-3.06l.09-2.74.63-.73c.78-.91.9-1,2.49-1a3.19,3.19,0,0,0,1.29-.15c0-.63.46-.78,2.66-.86,1.91-.08,2.22-.13,2.37-.39.26-.47,1.17-.78,2.34-.79,1.68,0,2.5-.21,3-.71s.53-.45,2-.45c1.25,0,1.61,0,1.8-.27.88-1.07,6-1.28,6-.26,0,.36.12.5.5.65a.85.85,0,0,1,.59.66c.27,1.32.35,1.47.72,1.53s.4.2.47.53a.64.64,0,0,0,.55.58,1.67,1.67,0,0,1,.82.59c.48.65,3.24.78,3.44.16.13-.43.48-.61,1.46-.75.63-.1.83-.21,1-.56a.9.9,0,0,1,.57-.49c.47-.07.63-1.66.51-4.87-.11-3,0-3.84.54-4.11a1.07,1.07,0,0,0,.51-.59,1.24,1.24,0,0,1,.7-.67c.34-.16.62-.4.62-.54,0-.31.52-.59,1.12-.59s.81-.15,1-.63a.73.73,0,0,1,.62-.48,1,1,0,0,0,.68-.49c.16-.36.57-.56,1.65-.8a.68.68,0,0,0,.54-.51c.08-.3.25-.43.67-.51a.94.94,0,0,0,.73-.49c.12-.27.43-.45,1-.6s.87-.31,1-.66a.87.87,0,0,1,.63-.57,1.77,1.77,0,0,0,.81-.52,1.76,1.76,0,0,1,1.08-.54c.56-.09.77-.21.81-.45.08-.44.35-.75.64-.75a1.94,1.94,0,0,0,.79-.58,1.47,1.47,0,0,1,1-.58c.37,0,.57-.15.86-.59s.5-.58.79-.58.42-.07.42-.67a2,2,0,0,0,0-.65l-.24.1M144.88,46c-.31.06-.38.18-.38.65v.57h2.12c2.85,0,3.36.1,3.69.68a1.23,1.23,0,0,0,.73.57c.35.08.47.23.55.66a1,1,0,0,0,.48.72c.9.41.84,5.66-.06,6-.25.08-.31.35-.38,1.67-.09,1.62-.26,2.08-.81,2.08-.25,0-.31.16-.35,1s-.09,1-.59,1.21-.54.36-.54.63a2.07,2.07,0,0,1-.59,1,2.24,2.24,0,0,0-.58.87c0,.39-.49,1-.8,1-.16,0-.41.21-.56.47-.27.48-.88.69-2.06.69a1,1,0,0,0-.82.42c-.47.63-1.23.75-4.88.75s-4.15-.1-4.32-.78c-.08-.31-.21-.39-.65-.39-.84,0-1.36-.26-1.48-.73-.07-.27-.22-.43-.42-.43-.38,0-.62-.28-.77-.88-.07-.29-.22-.46-.42-.46-.38,0-.66-.48-.66-1.15a1,1,0,0,0-.26-.71c-1-.8-.9-.48-.9-4.64s0-4.26.84-4.53c.14,0,.25-.47.29-1.19.08-1.17-.1-1.44-.41-.62a.77.77,0,0,1-.58.54c-.29,0-.41.18-.45.53a.7.7,0,0,1-.52.66c-.54.2-.67,1.63-.54,5.9l.07,2.19.48.17c.35.12.48.28.48.57,0,.87.21,1.44.57,1.55a.77.77,0,0,1,.6.84.44.44,0,0,0,.39.45,1,1,0,0,1,.57.51,1.83,1.83,0,0,0,.7.68c.3.15.51.39.51.58s.15.35.56.43a1.5,1.5,0,0,1,.9.57c.33.43.44.46,1.9.54a5.74,5.74,0,0,1,2.13.38c.64.33,1.88.28,4-.16a17,17,0,0,1,2.88-.25c1.61,0,1.71,0,1.87-.38a1.76,1.76,0,0,1,.78-.66,3.66,3.66,0,0,0,1.08-.9,12.08,12.08,0,0,1,.85-1,2.8,2.8,0,0,0,.55-.87.91.91,0,0,1,.56-.6c.29-.08.42-.26.5-.71a2.56,2.56,0,0,1,.61-1.1,1.65,1.65,0,0,0,.48-.81,3.35,3.35,0,0,1,.82-1.8c.31-.31.35-.55.36-2.06a12.3,12.3,0,0,1,.5-3.71,2.24,2.24,0,0,0-.23-.78A3.59,3.59,0,0,1,153,51c0-1.15-.17-1.66-.59-1.77a.67.67,0,0,1-.49-.59c-.07-.33-.22-.5-.41-.5a1.13,1.13,0,0,1-.84-.79c0-.22-.4-.38-.93-.38s-1.24-.35-1.24-.67-2.2-.65-3.62-.38m-93.26,8.6a.92.92,0,0,1-.61.34.82.82,0,0,0-.66.5,1.39,1.39,0,0,1-.66.6,1,1,0,0,0-.59.61.74.74,0,0,1-.5.5.7.7,0,0,0-.51.5,1,1,0,0,1-.47.58,1.7,1.7,0,0,0-.62.71,1,1,0,0,1-.62.58c-.31,0-.38.16-.38.61a1.62,1.62,0,0,1-.75,1.61l-.42.2v3c0,2.51,0,3,.25,3s.72.63.84,1.43c.08.47.22.72.47.83a1.52,1.52,0,0,1,.6.7,1.27,1.27,0,0,0,.51.63,1,1,0,0,1,.47.5.65.65,0,0,0,.52.41.8.8,0,0,1,.59.5.73.73,0,0,0,.72.5,2.61,2.61,0,0,1,1.18.59,2,2,0,0,0,1.69.58,3.9,3.9,0,0,1,2.36.62c.59.52,2.13.47,3.34-.1a4.41,4.41,0,0,1,2.37-.52c1.18,0,1.27,0,1.73-.52a1.7,1.7,0,0,1,1.25-.6c.6-.07.78-.16.78-.38,0-.43.35-.65,1.2-.77.64-.09.79-.18,1-.62a.9.9,0,0,1,.6-.58c.28,0,.39-.2.47-.67.17-1,.25-1.21.64-1.35s.41-.36.56-1.2.3-1.13.62-1.37c.64-.46.66-4.71,0-4.87-.4-.1-.78-.93-.78-1.7,0-.25-.12-.36-.45-.4s-.48-.15-.52-.5a.63.63,0,0,0-.33-.54,10.23,10.23,0,0,0-2.81,0c-.06.05.09.1.32.1.73,0,1.28.29,1.39.74.07.29.22.43.46.43s.63.31,1.07.82l.71.82v2.27c0,2.31-.11,2.8-.67,3.21a1.94,1.94,0,0,0-.48.94c-.16.64-.26.76-.64.8s-.48.15-.51.47a1.88,1.88,0,0,1-1.29,1.76,2,2,0,0,0-1,.74.72.72,0,0,1-.61.44Q63,72,63,72.33c0,.47-.42.69-1.49.79-.8.07-1,.15-1,.38,0,.62-.72.75-4.25.75S52,74.12,52,73.47c0-.22-.13-.3-.46-.3-.9,0-1.7-.33-1.8-.74a.82.82,0,0,0-.63-.54c-.36-.1-.54-.27-.58-.53a.62.62,0,0,0-.34-.48,1.19,1.19,0,0,1-.86-1,1.11,1.11,0,0,0-.3-.69c-.85-.85-.86-.91-.86-4.37s.06-3.74.75-3.86a.47.47,0,0,0,.37-.47c.14-1.28.24-1.5.72-1.75a.79.79,0,0,0,.49-.6c0-.23.17-.41.48-.53a1.4,1.4,0,0,0,.71-.69.9.9,0,0,1,.6-.57,1,1,0,0,0,.63-.54c.25-.47.5-.59,1.5-.7.44,0,.46-.07.16-.2a2.49,2.49,0,0,1-.6-.37c-.23-.2-.29-.2-.36,0m54.32,1.74a1,1,0,0,1,.25.62c0,.45.14.51.81.62a1.75,1.75,0,0,1,1.17.64,1.5,1.5,0,0,0,.62.5c.33,0,.7.71.82,1.59a2.75,2.75,0,0,0,.5,1.29c.59.72.59,3.6,0,4.19-.32.32-.41.62-.48,1.62-.1,1.4-.38,2.14-.82,2.14-.22,0-.31.12-.31.42,0,.45-.52,1.08-.89,1.08-.14,0-.28.26-.34.65a1.82,1.82,0,0,1-1.42,1.46,2.14,2.14,0,0,0-.87.62l-.44.52H99.89c-4.86,0-5.6-.1-5.77-.74,0-.17-.3-.34-.61-.4a.84.84,0,0,1-.72-.59.82.82,0,0,0-.65-.58.66.66,0,0,1-.57-.52c-.06-.23-.2-.42-.31-.42-.29,0-.76-.55-.76-.9,0-.16-.2-.35-.48-.45-.52-.18-.69-.63-.69-1.82,0-.48-.07-.64-.33-.71-.91-.24-.92-4.5,0-4.74.23-.06.32-.31.41-1.15s.17-1.1.59-1.31a1,1,0,0,0,.53-.63.93.93,0,0,1,.59-.62,1.1,1.1,0,0,0,.58-.57c0-.31.28-.49.82-.66.19-.06.25-.21.19-.5-.09-.46-.92-.48-1.29,0a1.6,1.6,0,0,1-.63.32c-.29.07-.46.22-.46.41s-.4.74-.87.91a.48.48,0,0,0-.29.42c0,.66-.37,1.37-.77,1.47-.74.18-.64,7.21.1,7.84a1.67,1.67,0,0,1,.58,1c.07.42.22.69.41.75a1.65,1.65,0,0,1,.6.77,3.47,3.47,0,0,0,1.71,1.67.85.85,0,0,1,.48.45c0,.17.32.37.61.46a1.2,1.2,0,0,1,.74.61c.19.39.32.46.93.46s1.44.36,1.44.74.94.42,4.27.43,4.06-.09,4.06-.45,1-.72,1.57-.72a1,1,0,0,0,.76-.49,1.71,1.71,0,0,1,.82-.59,2.18,2.18,0,0,0,1-.71c.26-.33.65-.78.86-1a3.29,3.29,0,0,0,.59-1c.13-.41.31-.62.55-.66.4,0,.56-.66.56-2.15,0-.66.08-1,.33-1.21.45-.45.45-2.22,0-3.5a7.33,7.33,0,0,1-.33-2.28c0-1.31,0-1.36-.43-1.46a1.07,1.07,0,0,1-.67-.69c-.13-.31-.35-.57-.48-.57s-.36-.23-.5-.5-.38-.5-.68-.5c-.49,0-1.74-.6-1.74-.84,0-.09-.17-.16-.38-.16s-.29,0-.18.12m47.23,13.52c0,.08.15.19.33.24a.45.45,0,0,1,.33.5c0,.34.11.45.51.53a.66.66,0,0,1,.61.6c.13.68.38.61.38-.1,0-.47-.08-.63-.43-.78a1.79,1.79,0,0,1-.67-.67c-.23-.44-1.06-.69-1.06-.32M125,71.32a3.26,3.26,0,0,0-.71,1.09.9.9,0,0,1-.61.62c-.47.16-.49.22-.49,1.08,0,.56.06.87.16.81a.56.56,0,0,0,.17-.44c0-.48.3-1,.6-1,.14,0,.36-.26.49-.58s.36-.59.58-.59.64-.52.71-1.22c.06-.54-.26-.47-.9.21m-89.33,0c-.15.43-.28.51-1,.6-1.32.17-1.32.21,0,.23s1.28,0,1.33-.35a.83.83,0,0,1,.43-.56c.63-.31.62-.41,0-.41s-.65.07-.79.49m86.52,4.18c0,.21.17.21.5,0s.18-.16-.13-.16-.37.07-.37.16m18.19,2.29,0,2.38.42,0,.63,0c.28,0,.16-.57-.21-1s-.53-.93-.67-2.5c-.11-1.21-.12-1.12-.14,1M83.5,77.5c0,.09-.11.17-.25.17a.26.26,0,0,0-.25.26.41.41,0,0,1-.33.35c-.21.06-.36.29-.43.63a1.17,1.17,0,0,1-.59.82c-.4.24-.48.39-.47.9,0,.34,0,.51.11.37.15-.44.58-.83.89-.83s.34-.18.41-.59.21-.58.34-.58a.25.25,0,0,0,.24-.25.25.25,0,0,1,.25-.25c.17,0,.25-.18.25-.58s0-.59-.09-.59-.08.08-.08.17M47,79.25a1.17,1.17,0,0,1-.58.58c-.34.13-.42.28-.42.74,0,.84-.27,1.41-.75,1.6s-.41.26-.4.78l0,.63.17-.53a.79.79,0,0,1,.63-.63.68.68,0,0,0,.56-.5.91.91,0,0,1,.6-.56c.5-.17.5-.19.5-1.35s-.07-1.43-.33-.76M60.67,83a9.72,9.72,0,0,0,.16,2.71,20.28,20.28,0,0,0,0-5.17c-.11-.17-.16.65-.16,2.46m47.83-1.53c0,.43,0,.45.19.18s.13-.36,0-.49-.18-.05-.18.31m.67.74c-.15.09-.17.16-.06.16s.3.27.41.59.31.58.55.58.29,0,.12-.15a1.38,1.38,0,0,1-.34-.69c-.12-.61-.3-.74-.68-.49m-11.07.58a.72.72,0,0,1-.52.52c-.43.1-.68,3.73-.26,3.73.77,0,1.1-.78,1.15-2.74s-.12-2.53-.37-1.51" transform="translate(11.67 22.92)"/><path id="path3" class="cls-4" d="M157.71,22.78a2.72,2.72,0,0,0-.92.56l-1.12,1c-.32.27-.81.69-1.07.93a4.85,4.85,0,0,1-1.18.75,4.25,4.25,0,0,0-1.08.73,1.3,1.3,0,0,1-.61.43,2,2,0,0,0-.77.47,3.63,3.63,0,0,1-1.14.67,2.3,2.3,0,0,0-1,.69c-.21.28-.48.5-.61.5a1.46,1.46,0,0,0-.68.48,2,2,0,0,1-.94.59,3,3,0,0,0-1.15.68,2.66,2.66,0,0,1-.84.58,2,2,0,0,0-.72.41,5.68,5.68,0,0,1-1.12.64,2.4,2.4,0,0,0-.85.62c-.6.86-1.63.68-2.9-.53a10.69,10.69,0,0,0-1.72-1.35,6.22,6.22,0,0,1-1-.65c-.65-.51-3.74-.55-4.61,0a4.65,4.65,0,0,1-2.13.87,1.56,1.56,0,0,0-1.13.55,1.4,1.4,0,0,1-.69.48c-1.59,0-2.31,3-1.39,5.79a1.58,1.58,0,0,1-1.29,2.21,2.52,2.52,0,0,0-1.66.58,3.64,3.64,0,0,1-1.92.59,3.63,3.63,0,0,0-1.83.61,6.93,6.93,0,0,1-1.91.48,6.57,6.57,0,0,0-1.9.48c-.38.35-1.48.55-3.75.68a8.38,8.38,0,0,0-3,.52,5.72,5.72,0,0,1-3,.45,7.65,7.65,0,0,1-1.31-3c-.14-1.11-1.45-2.81-2.92-3.81l-.92-.65c-.81-.58-5.06-.46-5.76.18a3.19,3.19,0,0,1-.93.48,2.06,2.06,0,0,0-1,.78,6.52,6.52,0,0,1-.66.86c-.34.35-.37,3.52,0,4.38.11.32.12.51,0,.63a.72.72,0,0,0-.18.45c0,.76-.63,1.16-1.85,1.16a5.23,5.23,0,0,0-1.78.26c-1.28.56-7.19.61-8.19.08a18.81,18.81,0,0,0-4.08-.36c-3.68-.14-5.13-.34-5.6-.74a1.85,1.85,0,0,0-.66-.32c-1-.27-1.08-.38-1.17-3.22-.11-3.37-.55-4.48-1.89-4.82a6.15,6.15,0,0,1-1.56-.7,3.19,3.19,0,0,0-1-.52c-.14,0-.93-.07-1.76-.16a12.6,12.6,0,0,0-2.88,0l-1.38.17-1.4,1.39c-1.07,1.06-1.44,1.54-1.58,2.08s-.29.75-.41.79a1.69,1.69,0,0,0-.53.66c-.38.7-1.1.78-1.83.2a10,10,0,0,0-1.26-.79l-1.58-.84A6.8,6.8,0,0,1,48.65,39a1.53,1.53,0,0,0-.85-.46,2.26,2.26,0,0,1-1-.58,3.91,3.91,0,0,0-.77-.59,3.67,3.67,0,0,1-.82-.58,3.33,3.33,0,0,0-.87-.58,10.18,10.18,0,0,1-2.16-1.76,2.36,2.36,0,0,0-.84-.58.87.87,0,0,1-.51-.33c-.39-.46-.75-.26-.87.51-.18,1,1.19,3.11,2.35,3.59.31.13.56.29.56.36a2.15,2.15,0,0,0,.68.54,3.62,3.62,0,0,1,.92.79,1.79,1.79,0,0,0,1,.56,2.48,2.48,0,0,1,1.16.67,1.43,1.43,0,0,0,.74.48.74.74,0,0,1,.51.23,5.59,5.59,0,0,0,1.23.75c3.51,1.77,5.11,4.24,5.12,7.91,0,2.93.28,3.9,1.32,4.92l.88.86h5.42l.63-.5a3.18,3.18,0,0,1,1.23-.6c1-.16,3.44-2.58,3.6-3.57a2.78,2.78,0,0,1,.48-1.14c1-1.15.27-1,7.15-1,9.41.14,10.77.21,11.9.61A12.21,12.21,0,0,0,90.3,50c3,.12,2.78,0,2.92,2.18.08,1.31.15,1.62.5,2a3.75,3.75,0,0,1,.59,1.22c.38,1.52,3.44,3.43,4.9,3.07,2.3-.58,2.55-.67,3.18-1.21a3.34,3.34,0,0,1,.8-.57c.07,0,.26-.23.42-.5.35-.6.66-.64.82-.13a6.73,6.73,0,0,0,1.9,2A8.71,8.71,0,0,1,109,60.54c.51,1.54.22,7.11-.41,7.74a2.19,2.19,0,0,0-.5,1,1.9,1.9,0,0,1-.55,1,7.57,7.57,0,0,0-.87,1,4.3,4.3,0,0,1-1.73,1.57,3.7,3.7,0,0,0-1,.51c-.94.64-7.6.65-8.35,0a3.53,3.53,0,0,0-1.16-.59c-.74-.2-3.56-2.77-3.56-3.25a.48.48,0,0,0-.21-.38c-.74-.48-1.3-3.54-1-5.4.1-.64.19-1.33.19-1.55a2.28,2.28,0,0,1,.5-1,4.08,4.08,0,0,0,.6-1A8,8,0,0,1,92.79,58a1.52,1.52,0,0,0,.28-2,1.71,1.71,0,0,0-2.15.24,27.16,27.16,0,0,0-2.49,2.64l-.55.87a2.46,2.46,0,0,0-.38,1.49,2.78,2.78,0,0,1-.42,1.58,2.65,2.65,0,0,0,0,2.82,3.45,3.45,0,0,1,.42,1.94c0,1.06,0,1.19.48,1.58a2.92,2.92,0,0,1,.69,1.16,3.13,3.13,0,0,0,.68,1.18,1.63,1.63,0,0,1,.48.67c0,.11.21.33.46.5a3.65,3.65,0,0,1,.77.69,2.78,2.78,0,0,0,.91.64,3.68,3.68,0,0,1,1,.58,3.67,3.67,0,0,0,1.09.55,6.1,6.1,0,0,1,1.39.66l.65.45h4c4.16,0,5-.11,5.52-.67a2.82,2.82,0,0,1,1.12-.58,2.52,2.52,0,0,0,1.15-.67c.18-.23.41-.42.51-.42a7.41,7.41,0,0,0,2-2.09A13.06,13.06,0,0,1,111,70.6a2.18,2.18,0,0,0,.46-1.42,2.39,2.39,0,0,1,.5-1.5c.49-.72.5-.76.5-2.93s0-2.21-.5-2.93a2.42,2.42,0,0,1-.5-1.58,2.38,2.38,0,0,0-.79-1.88,3.72,3.72,0,0,1-.46-.69,2.46,2.46,0,0,0-1.62-1,1.67,1.67,0,0,1-.71-.5c-.45-.47-.57-.5-1.67-.5-1.73,0-1.73,0-1.57-2.5a9.41,9.41,0,0,1,.67-3.5c.66-1.73.71-1.77,2.46-1.91a5.46,5.46,0,0,0,2.26-.55,5.7,5.7,0,0,1,2.53-.54,4.5,4.5,0,0,0,2.49-.58,3.77,3.77,0,0,1,2.07-.54c1.26-.06,2.51-.34,2.51-.55s1.09-.56,2.78-.67,1.94-.16,2.51-.55c1-.68,3.13-.67,3.39,0a5.07,5.07,0,0,0,.55,1,3.75,3.75,0,0,1,.51.92,3.53,3.53,0,0,0,.73,1c.34.34.68.7.78.79s.46.45.83.8l.67.62,1.83,0c2.53,0,5.36-1.46,5.64-2.88a8.26,8.26,0,0,1,.52-1.39,4.72,4.72,0,0,0,.07-3.82c-1-1.92.48-4.32,3.4-5.59a1.24,1.24,0,0,0,.56-.47,2.58,2.58,0,0,1,1-.67,10.3,10.3,0,0,0,2.49-1.62,2.36,2.36,0,0,1,1-.56,2.55,2.55,0,0,0,.89-.49,4.44,4.44,0,0,1,.89-.64,2.24,2.24,0,0,0,.74-.66,1.35,1.35,0,0,1,.85-.53,1.57,1.57,0,0,0,.79-.36,5.32,5.32,0,0,1,.88-.68,4.09,4.09,0,0,0,.88-.7,1.88,1.88,0,0,1,.75-.5,5.06,5.06,0,0,0,1.09-.69,2.07,2.07,0,0,1,.75-.47c.11,0,.35-.22.53-.49a3,3,0,0,1,.79-.76c.26-.15.47-.37.47-.49a1.71,1.71,0,0,1,.35-.67c.56-.7-.48-1.26-1.81-1m1,1c0,.6,0,.67-.42.67s-.53.17-.79.58-.49.58-.86.59a1.47,1.47,0,0,0-1,.58,1.94,1.94,0,0,1-.79.58c-.29,0-.56.31-.64.75,0,.24-.25.36-.81.45a1.76,1.76,0,0,0-1.08.54,1.77,1.77,0,0,1-.81.52.87.87,0,0,0-.63.57c-.12.35-.33.49-1,.66s-.9.33-1,.6a.94.94,0,0,1-.73.49c-.42.08-.59.21-.67.51a.68.68,0,0,1-.54.51c-1.08.24-1.49.44-1.65.8a1,1,0,0,1-.68.49.73.73,0,0,0-.62.48c-.15.48-.37.63-1,.63s-1.12.28-1.12.59c0,.14-.28.38-.62.54a1.24,1.24,0,0,0-.7.67,1.07,1.07,0,0,1-.51.59c-.54.27-.65,1.12-.54,4.11.12,3.21,0,4.8-.51,4.87a.9.9,0,0,0-.57.49c-.17.35-.37.46-1,.56-1,.14-1.33.32-1.46.75-.2.62-3,.49-3.44-.16a1.67,1.67,0,0,0-.82-.59.64.64,0,0,1-.55-.58c-.07-.33-.21-.5-.47-.53s-.45-.21-.72-1.53a.85.85,0,0,0-.59-.66c-.38-.15-.5-.29-.5-.65,0-1-5.09-.81-6,.26-.19.22-.55.27-1.8.27-1.49,0-1.6,0-2,.45s-1.32.69-3,.71c-1.17,0-2.08.32-2.34.79-.15.26-.46.31-2.37.39-2.2.08-2.66.23-2.66.86a3.19,3.19,0,0,1-1.29.15c-1.59,0-1.71.06-2.49,1l-.63.73-.09,2.74c-.08,2.63-.1,2.76-.48,3.06a2.44,2.44,0,0,0-.61,1c-.13.37-.34.64-.52.67a3,3,0,0,0-1.51.82c-.64.66-3.68.57-4.19-.12-.2-.28-.47-.5-.6-.5s-.38-.26-.57-.58-.45-.59-.59-.59-.28-.28-.35-.95a4.42,4.42,0,0,0-.49-1.55,4.1,4.1,0,0,1-.5-1.75c-.15-1.34-.29-1.58-1-1.58a3.55,3.55,0,0,1-1.1-.26c-1.56-.65-3.07-.77-11-.86-7.26-.08-7.78-.11-8.15-.4-.62-.49-4.12-.47-4.27,0-.06.18-.16.33-.23.33-.64,0-1.25,1-1.34,2.18s-.11,1.24-.57,1.29a.69.69,0,0,0-.64.55c-.1.28-.29.48-.45.48a2.23,2.23,0,0,0-.92.59,2.23,2.23,0,0,1-1,.58,3.12,3.12,0,0,0-1.95.78c-.28.36-.41.39-2.14.39H57.2l-1.06-1.05-1.06-1L55,49.9c-.08-3.23-.19-3.73-.77-3.73-.24,0-.36-.38-.44-1.34a.77.77,0,0,0-.58-.82c-.3-.13-.54-.36-.54-.51a.71.71,0,0,0-.7-.67c-.16,0-.41-.22-.55-.48s-.42-.53-1.18-.7-1-.32-1.11-.55c-.26-.5-.46-.59-1.21-.6-.59,0-.7-.07-.92-.54a1,1,0,0,0-.81-.65,2.77,2.77,0,0,1-1.09-.62,1.61,1.61,0,0,0-1-.52c-.33,0-.45-.1-.49-.38s-.28-.48-.68-.67-.63-.4-.63-.53-.21-.36-.48-.5a.91.91,0,0,1-.55-.85c-.09-.76.16-.92.39-.25a.81.81,0,0,0,.64.62.62.62,0,0,1,.57.57c.07.37.19.49.47.49a.87.87,0,0,1,.9.58,1.85,1.85,0,0,0,1,.57c.66.19.88.35,1,.71s.29.47.61.47a1.1,1.1,0,0,1,.73.35,2.46,2.46,0,0,0,1.53.82.55.55,0,0,1,.5.4c.2.51.36.6,1.31.74.62.09.82.2,1,.56.41.84,2.89.84,3,0a.72.72,0,0,1,.43-.53c.57-.22.74-.53.8-1.43s.08-.83.52-.88.48-.16.56-.53.2-.49.52-.53a1,1,0,0,0,.7-.55l.28-.5,2.76-.05c2.65,0,2.77,0,2.88.29s.51.63,1.55.77c.56.07.86.19.86.34s.23.34.5.48l.5.26v3c0,3,.11,3.66.59,3.66a2,2,0,0,1,.81.57c.63.63.86.68,3.76.84a5.06,5.06,0,0,1,2,.32c1.22,1.08,16.15,1,17.17-.07a3.52,3.52,0,0,1,.79-.64c.59-.31.75-1.27.6-3.42a12.2,12.2,0,0,1,.2-3.89c.08-.34.19-.38,1-.38s1-.07,1.36-.5,3.55-.79,3.87-.29a1.94,1.94,0,0,0,1.35.78c.48.08.63.18.67.48a.85.85,0,0,0,.47.57,1.55,1.55,0,0,1,.64.73c.15.35.36.56.61.59s.4.15.43,1.06c.13,3.08.45,3.42,3.33,3.41,2.09,0,2.94-.16,3.45-.65.33-.31.57-.35,2.31-.35,2.39,0,3.51-.21,3.94-.76.25-.33.47-.4,1.11-.4,1.44,0,2.88-.34,3.2-.74s.54-.4,1.37-.48,1.15-.2,1.42-.52a1.71,1.71,0,0,1,1.17-.52c2.14-.29,3.11-2.79,1.47-3.79-.38-.23-.31-3.29.07-3.29.17,0,.43-.22.6-.5a.82.82,0,0,1,.76-.5,1.58,1.58,0,0,0,1-.5,1.76,1.76,0,0,1,1-.5,2.23,2.23,0,0,0,1.89-.76c.31-.67,2.84-.6,3.54.1a1.63,1.63,0,0,0,.78.5,2,2,0,0,1,.89.58,2.46,2.46,0,0,0,.74.58c.09,0,.26.21.38.46.5,1,3.24,1.08,4.38.07a2.07,2.07,0,0,1,1-.53.72.72,0,0,0,.78-.7c0-.2.12-.3.37-.3.41,0,1.63-.74,1.63-1,0-.08.29-.19.65-.26.56-.09.68-.18.77-.59s.2-.49.51-.49a1.51,1.51,0,0,0,.89-.49,3.11,3.11,0,0,1,1.17-.68c.54-.14.74-.29.87-.67s.26-.49.75-.49a1.26,1.26,0,0,0,1-.49,2.37,2.37,0,0,1,.93-.61.92.92,0,0,0,.63-.55,1.56,1.56,0,0,1,.68-.69,1,1,0,0,0,.58-.62c0-.28.16-.38.46-.38.61,0,1.57-.44,1.57-.72s.12-.33.45-.43a2,2,0,0,1,0,.65M143.81,45.52c-.35.13-.45.3-.53.84-.17,1.28-.12,1.3,3,1.42,2.26.08,2.36.1,3.25.63a11,11,0,0,0,1.18.63c.82.29,1.1,3.94.5,6.63a8.29,8.29,0,0,0-.17,1.47,2.42,2.42,0,0,1-.49,1.42,4,4,0,0,0-.59,1.44,2.22,2.22,0,0,1-.52,1.17,8.79,8.79,0,0,0-1.79,2.35,3,3,0,0,1-1.06,1.16,6.61,6.61,0,0,0-.91.69,3.41,3.41,0,0,1-1.63.46,2.22,2.22,0,0,0-1,.46l-.6.46h-6.7l-.4-.46a1.78,1.78,0,0,0-1.07-.57c-.7-.11-2.42-1.63-2.42-2.14a2,2,0,0,0-.5-.8,2.17,2.17,0,0,1-.5-.83,1.78,1.78,0,0,0-.42-.76c-1-1.23-1.1-6.47-.09-7.54.8-.87,1.05-2.8.44-3.41s-.7-.53-1.62.47l-1.29,1.39c-.67.71-1.16,3.84-.87,5.59a16.47,16.47,0,0,1,.19,2.15c0,1,0,1.07.58,1.57a1.32,1.32,0,0,1,.58,1.11,1.21,1.21,0,0,0,.44,1,5.09,5.09,0,0,1,.82,1.17,3.13,3.13,0,0,0,.78,1c.21.15.64.5,1,.78a3.46,3.46,0,0,0,.91.61,2.08,2.08,0,0,1,.7.57c.31.37.56.47,1.28.53a4.91,4.91,0,0,1,1.58.43c1.4.73,6.32.86,7.13.19a6.09,6.09,0,0,1,2.69-.64,2.81,2.81,0,0,0,2-.66,11.93,11.93,0,0,0,2.55-2.72,2.59,2.59,0,0,1,.5-.72,3,3,0,0,0,.52-.8,4.67,4.67,0,0,1,.75-1.06,1.24,1.24,0,0,0,.39-1,1.31,1.31,0,0,1,.52-1.09c.47-.44.52-.58.67-2.19a8.57,8.57,0,0,1,.48-2.38,4.26,4.26,0,0,0,0-4.25,3.72,3.72,0,0,1-.45-1.28,2.25,2.25,0,0,0-.7-1.43c-.61-.62-.8-.81-1.37-1.43a5.94,5.94,0,0,0-1.17-.83l-1.34-.74a14.16,14.16,0,0,0-5.13-.1m4.07.42c.43.07.62.19.62.39s.65.67,1.24.67.93.16.93.38a1.13,1.13,0,0,0,.84.79c.19,0,.34.17.41.5a.67.67,0,0,0,.49.59c.42.11.59.62.59,1.77a3.59,3.59,0,0,0,.28,1.27,2.24,2.24,0,0,1,.23.78,12.3,12.3,0,0,0-.5,3.71c0,1.51,0,1.75-.36,2.06a3.35,3.35,0,0,0-.82,1.8,1.65,1.65,0,0,1-.48.81,2.56,2.56,0,0,0-.61,1.1c-.08.45-.21.63-.5.71a.91.91,0,0,0-.56.6,2.8,2.8,0,0,1-.55.87,12.08,12.08,0,0,0-.85,1,3.66,3.66,0,0,1-1.08.9,1.76,1.76,0,0,0-.78.66c-.16.35-.26.38-1.87.38a17,17,0,0,0-2.88.25c-2.13.44-3.37.49-4,.16a5.74,5.74,0,0,0-2.13-.38c-1.46-.08-1.57-.11-1.9-.54a1.5,1.5,0,0,0-.9-.57c-.41-.08-.56-.19-.56-.43s-.21-.43-.51-.58a1.83,1.83,0,0,1-.7-.68,1,1,0,0,0-.57-.51.44.44,0,0,1-.39-.45.77.77,0,0,0-.6-.84c-.36-.11-.57-.68-.57-1.55,0-.29-.13-.45-.48-.57l-.48-.17-.07-2.19c-.13-4.27,0-5.7.54-5.9a.7.7,0,0,0,.52-.66c0-.35.16-.49.45-.53a.77.77,0,0,0,.58-.54c.31-.82.49-.55.41.62,0,.72-.15,1.15-.29,1.19-.8.27-.84.48-.84,4.53s-.06,3.84.9,4.64a1,1,0,0,1,.26.71c0,.67.28,1.15.66,1.15.2,0,.35.17.42.46.15.6.39.88.77.88.2,0,.35.16.42.43.12.47.64.73,1.48.73.44,0,.57.08.65.39.17.68.72.78,4.32.78s4.41-.12,4.88-.75a1,1,0,0,1,.82-.42c1.18,0,1.79-.21,2.06-.69.15-.26.4-.47.56-.47.31,0,.8-.61.8-1a2.24,2.24,0,0,1,.58-.87,2.07,2.07,0,0,0,.59-1c0-.27.16-.46.54-.63s.54-.31.59-1.21.1-1,.35-1c.55,0,.72-.46.81-2.08.07-1.32.13-1.59.38-1.67.9-.29,1-5.54.06-6a1,1,0,0,1-.48-.72c-.08-.43-.2-.58-.55-.66a1.23,1.23,0,0,1-.73-.57c-.33-.58-.84-.68-3.69-.68H144.5V46.6c0-.47.07-.59.38-.65a13.07,13.07,0,0,1,3,0M51.33,53.58a6.34,6.34,0,0,1-1.14.86,14.9,14.9,0,0,0-3.64,3.77c-.24.43-.52.79-.62.79-.26,0-.55.53-.69,1.23a1.39,1.39,0,0,1-.31.73c-1.11.68-1.12,7.28,0,8.11a2.43,2.43,0,0,1,.5.91c.46,1.32,2.63,3.59,3.63,3.8a2.36,2.36,0,0,1,.94.58c.42.43.64.51,1.82.63a3,3,0,0,1,1.86.56c1,.85,4.72.87,6,0a3.63,3.63,0,0,1,2-.6c1.15-.1,1.39-.18,1.9-.63a2.08,2.08,0,0,1,.89-.52,2.55,2.55,0,0,0,1-.5,4,4,0,0,1,.83-.5,9.31,9.31,0,0,0,2-2,2.12,2.12,0,0,1,.39-.7,6.15,6.15,0,0,0,.68-1.31,2.73,2.73,0,0,1,.45-.88c1-.6,1.09-7.41.14-7.41-.08,0-.27-.24-.42-.53a6.7,6.7,0,0,0-2.24-2.21,3.68,3.68,0,0,1-.78-.36c-.63-.39-1.25-.32-2.17.25-1.24.77-1.14,1.23.3,1.45.75.12.87.2,2.63,1.91l.89.87-.06,1.71c0,1.63-.08,1.75-.53,2.21A2.17,2.17,0,0,0,67.05,67a1.47,1.47,0,0,1-.66,1.12c-.31.24-.56.51-.56.61A19.22,19.22,0,0,1,63,71.5a2.06,2.06,0,0,0-.6.4,4.82,4.82,0,0,1-1.52.68,9.41,9.41,0,0,0-1.74.63c-1.29.68-5.27.6-6.12-.12a4.69,4.69,0,0,0-1.17-.51,4.92,4.92,0,0,1-1.38-.69,1.88,1.88,0,0,0-.66-.39,5.21,5.21,0,0,1-1.89-2.3,2.57,2.57,0,0,0-.52-1c-1-1.07-1.05-5.35-.07-6.43a3.39,3.39,0,0,0,.53-1,3.92,3.92,0,0,1,.68-1.21,2.25,2.25,0,0,0,.48-.7,10.73,10.73,0,0,1,2.33-2.26c2.28-1.36,2.21-1.29,2.07-2-.18-1-1.5-1.62-2.07-1m1.25,1.34c.3.13.28.15-.16.2-1,.11-1.25.23-1.5.7a1,1,0,0,1-.63.54.9.9,0,0,0-.6.57,1.4,1.4,0,0,1-.71.69c-.31.12-.48.3-.48.53a.79.79,0,0,1-.49.6c-.48.25-.58.47-.72,1.75a.47.47,0,0,1-.37.47c-.69.12-.75.44-.75,3.86s0,3.52.86,4.37a1.11,1.11,0,0,1,.3.69,1.19,1.19,0,0,0,.86,1,.62.62,0,0,1,.34.48c0,.26.22.43.58.53a.82.82,0,0,1,.63.54c.1.41.9.73,1.8.74.33,0,.46.08.46.3,0,.65.69.78,4.25.78s4.25-.13,4.25-.75c0-.23.21-.31,1-.38C62.58,73,63,72.8,63,72.33q0-.28.51-.39a.72.72,0,0,0,.61-.44,2,2,0,0,1,1-.74A1.88,1.88,0,0,0,66.37,69c0-.32.16-.43.51-.47s.48-.16.64-.8a1.94,1.94,0,0,1,.48-.94c.56-.41.67-.9.67-3.21V61.31L68,60.49c-.44-.51-.85-.82-1.07-.82s-.39-.14-.46-.43c-.11-.45-.66-.74-1.39-.74-.23,0-.38,0-.32-.1a10.23,10.23,0,0,1,2.81,0,.63.63,0,0,1,.33.54c0,.35.16.46.52.5s.45.15.45.4c0,.77.38,1.6.78,1.7.63.16.61,4.41,0,4.87-.32.24-.47.56-.62,1.37s-.27,1.08-.56,1.2-.47.32-.64,1.35c-.08.47-.19.63-.47.67a.9.9,0,0,0-.6.58c-.2.44-.35.53-1,.62-.85.12-1.2.34-1.2.77,0,.22-.18.31-.78.38a1.7,1.7,0,0,0-1.25.6c-.46.49-.55.52-1.73.52a4.41,4.41,0,0,0-2.37.52c-1.21.57-2.75.62-3.34.1a3.9,3.9,0,0,0-2.36-.62A2,2,0,0,1,51,73.92a2.61,2.61,0,0,0-1.18-.59.73.73,0,0,1-.72-.5.8.8,0,0,0-.59-.5.65.65,0,0,1-.52-.41,1,1,0,0,0-.47-.5,1.27,1.27,0,0,1-.51-.63,1.52,1.52,0,0,0-.6-.7c-.25-.11-.39-.36-.47-.83-.12-.8-.5-1.43-.84-1.43s-.25-.46-.25-3v-3l.42-.2A1.62,1.62,0,0,0,46,60.08c0-.45.07-.57.38-.61a1,1,0,0,0,.62-.58,1.7,1.7,0,0,1,.62-.71,1,1,0,0,0,.47-.58.7.7,0,0,1,.51-.5.74.74,0,0,0,.5-.5,1,1,0,0,1,.59-.61,1.39,1.39,0,0,0,.66-.6.82.82,0,0,1,.66-.5.92.92,0,0,0,.61-.34c.07-.2.13-.2.36,0a2.49,2.49,0,0,0,.6.37m53.92,1.41c0,.24,1.25.84,1.74.84.3,0,.49.14.68.5s.37.5.5.5.35.26.48.57a1.07,1.07,0,0,0,.67.69c.42.1.43.15.43,1.46a7.33,7.33,0,0,0,.33,2.28c.45,1.28.45,3,0,3.5-.25.25-.33.55-.33,1.21,0,1.49-.16,2.1-.56,2.15-.24,0-.42.25-.55.66a3.29,3.29,0,0,1-.59,1c-.21.22-.6.67-.86,1a2.18,2.18,0,0,1-1,.71,1.71,1.71,0,0,0-.82.59,1,1,0,0,1-.76.49c-.6,0-1.57.44-1.57.72s-.76.45-4.06.45S96,75.57,96,75.24s-.71-.74-1.44-.74-.74-.07-.93-.46a1.2,1.2,0,0,0-.74-.61c-.29-.09-.57-.29-.61-.46a.85.85,0,0,0-.48-.45,3.47,3.47,0,0,1-1.71-1.67,1.65,1.65,0,0,0-.6-.77c-.19-.06-.34-.33-.41-.75a1.67,1.67,0,0,0-.58-1c-.74-.63-.84-7.66-.1-7.84.4-.1.77-.81.77-1.47a.48.48,0,0,1,.29-.42c.47-.17.87-.58.87-.91s.17-.34.46-.41a1.6,1.6,0,0,0,.63-.32c.37-.45,1.2-.43,1.29,0,.06.29,0,.44-.19.5-.54.17-.77.35-.82.66a1.1,1.1,0,0,1-.58.57.93.93,0,0,0-.59.62,1,1,0,0,1-.53.63c-.42.21-.49.36-.59,1.31s-.18,1.09-.41,1.15c-.92.24-.91,4.5,0,4.74.26.07.33.23.33.71,0,1.19.17,1.64.69,1.82.28.1.48.29.48.45,0,.35.47.9.76.9.11,0,.25.19.31.42a.66.66,0,0,0,.57.52.82.82,0,0,1,.65.58.84.84,0,0,0,.72.59c.31.06.57.23.61.4.17.64.91.74,5.77.74h4.65l.44-.52a2.14,2.14,0,0,1,.87-.62,1.82,1.82,0,0,0,1.42-1.46c.06-.39.2-.65.34-.65.37,0,.89-.63.89-1.08,0-.3.09-.42.31-.42.44,0,.72-.74.82-2.14.07-1,.16-1.3.48-1.62.59-.59.59-3.47,0-4.19a2.75,2.75,0,0,1-.5-1.29c-.12-.88-.49-1.59-.82-1.59a1.5,1.5,0,0,1-.62-.5,1.75,1.75,0,0,0-1.17-.64c-.67-.11-.76-.17-.81-.62a1,1,0,0,0-.25-.62c-.11-.07,0-.12.18-.12s.38.07.38.16m45.83,13c0,.59.12.78,1,1.63a16.67,16.67,0,0,1,2.43,3c.52.8.72.76,1.05-.2a2.19,2.19,0,0,0-.54-2.12,1.49,1.49,0,0,1-.4-.69c0-.52-1.22-1.64-2.16-2-1.27-.46-1.34-.44-1.34.33m-27.52.82a7,7,0,0,0-1.06,1.37,4.14,4.14,0,0,1-.6.86,2.4,2.4,0,0,0-.48,1,3.76,3.76,0,0,1-.6,1.16c-.71.84-.53,1.58.41,1.65.74,0,1.52-.41,1.52-.89a1.09,1.09,0,0,1,.35-.52,3.67,3.67,0,0,0,.65-.9,6.46,6.46,0,0,1,.74-1.08l1-1.16c1.63-1.85-.23-3.22-1.94-1.44m29.42,0a1.79,1.79,0,0,0,.67.67c.35.15.43.31.43.78,0,.71-.25.78-.38.1a.66.66,0,0,0-.61-.6c-.4-.08-.51-.19-.51-.53a.45.45,0,0,0-.33-.5c-.47-.12-.41-.38.08-.38a.7.7,0,0,1,.65.46m-119.11.69a3,3,0,0,1-1.21.63A1.41,1.41,0,0,0,33,72c-.2.27-.44.48-.53.48a2,2,0,0,0-.67.39l-.49.4.45.29a2.47,2.47,0,0,0,2.54-.31,2.58,2.58,0,0,1,1-.44,2,2,0,0,0,1.44-.75,2.09,2.09,0,0,1,.92-.52c1.43-.29.92-1.06-.78-1.18-1.11-.08-1.18-.07-1.76.44m90.76.29c-.07.7-.37,1.22-.71,1.22s-.41.19-.58.59-.35.58-.49.58c-.3,0-.6.5-.6,1a.56.56,0,0,1-.17.44c-.1.06-.16-.25-.16-.81,0-.86,0-.92.49-1.08a.9.9,0,0,0,.61-.62c.23-1,1.7-2.12,1.61-1.3M37,70.94a3,3,0,0,1-.49.3.83.83,0,0,0-.43.56c-.05.34-.13.37-1.33.35s-1.33-.06,0-.23c.68-.09.81-.17,1-.6s.25-.49.79-.49c.34,0,.57,0,.51.11m103.14,3.88c-.56.63-.64,5.47-.09,5.65a4.8,4.8,0,0,1,.87.66c.77.7,1.09.55,1.25-.58a6.88,6.88,0,0,0-.55-3.22,3.23,3.23,0,0,1-.42-1.19,4,4,0,0,0-.47-1.33l-.27-.34-.32.35m-17.42.68c-.33.21-.5.21-.5,0s.16-.17.37-.16.33,0,.13.16m18.07,3a2.44,2.44,0,0,0,.43.75c.37.41.49,1,.21,1l-.63,0-.42,0,0-2.38c0-2.16,0-2.25.14-1a12.79,12.79,0,0,0,.24,1.75m-58-1.58A9.88,9.88,0,0,0,80.61,80a3.22,3.22,0,0,1-.5,1,.94.94,0,0,0-.14.76c.07.62.26.77.42.34a.64.64,0,0,1,.54-.25c.77,0,3.17-2.65,3.28-3.61a2.09,2.09,0,0,1,.46-1.14c1-1.11-.88-1.26-2-.16m1,1c0,.4-.08.58-.25.58a.25.25,0,0,0-.25.25.25.25,0,0,1-.24.25c-.13,0-.27.25-.34.58s-.19.59-.41.59-.74.39-.89.83c-.06.14-.1,0-.11-.37,0-.51.07-.66.47-.9a1.17,1.17,0,0,0,.59-.82c.07-.34.22-.57.43-.63a.41.41,0,0,0,.33-.35.26.26,0,0,1,.25-.26c.14,0,.25-.08.25-.17s0-.17.08-.17.09.27.09.59m-36.79-.21a4,4,0,0,0-.37.73,3,3,0,0,1-.61.91,2.63,2.63,0,0,0-.58,1.06,2.89,2.89,0,0,1-.52,1,2,2,0,0,0-.24,2.35l.39.39,1.46-1.45,1.46-1.45-.06-1.63c-.08-1.85-.43-2.6-.93-2m.45,2.3c0,1.16,0,1.18-.5,1.35a.91.91,0,0,0-.6.56.68.68,0,0,1-.56.5.79.79,0,0,0-.63.63l-.17.53,0-.63c0-.52,0-.65.4-.78s.75-.76.75-1.6c0-.46.08-.61.42-.74a1.17,1.17,0,0,0,.58-.58c.26-.67.33-.49.33.76m12.93-.41c-.68.68-.3,6.73.43,6.73s.81-.2.81-3.3c0-3.49-.31-4.36-1.24-3.43m48.11.27a2.89,2.89,0,0,0,.17,3.18l1.15,1.33c.56.65.78.79,1.25.79.84,0,.84-1.3,0-2.32a3.56,3.56,0,0,1-.67-1.15c-.14-.64-1.65-2.11-1.89-1.83M61,83.21a7.47,7.47,0,0,1-.17,2.46A9.72,9.72,0,0,1,60.67,83c0-1.81,0-2.63.16-2.46A13.25,13.25,0,0,1,61,83.21m47.69-1.6c-.16.27-.18.25-.19-.18s0-.45.18-.31.14.27,0,.49m-10.75,0a1.11,1.11,0,0,0-.27.43,2.92,2.92,0,0,1-.59.67l-.58.55V85c0,2.2.17,2.57,1.13,2.55,1.22,0,1.37-.36,1.37-3.1s-.32-3.65-1.06-2.83m11.91,1a1.38,1.38,0,0,0,.34.69c.17.11.14.15-.12.15s-.4-.17-.55-.58-.3-.59-.41-.59-.09-.07.06-.16c.38-.25.56-.12.68.49m-11.38,1.6c0,2-.38,2.74-1.15,2.74-.42,0-.17-3.63.26-3.73a.72.72,0,0,0,.52-.52c.25-1,.43-.32.37,1.51m13.13,1.21a.4.4,0,0,0,.06.35c.19.31.7.1.57-.23s-.49-.35-.63-.12" transform="translate(11.67 22.92)"/><path id="path4" class="cls-5" d="M1,53.33c0,47.3,0,53.34.25,53.34s.25-6,.25-53.34S1.47,0,1.25,0,1,6,1,53.33m397.5,0c0,47.3,0,53.34.25,53.34s.25-6,.25-53.34S399,0,398.75,0s-.25,6-.25,53.33M173.85,17.27l-.35.44v37.9c0,43.13-.17,38.72,1.51,38.72s1.49,4.21,1.49-38.8V17.71l-.35-.44c-.28-.36-.47-.44-1.15-.44s-.87.08-1.15.44m1.89.51c.14.37.14,75.25,0,75.61-.22.55-1.35.36-1.47-.24-.18-.9-.12-74.75.06-75.22s1.22-.63,1.41-.15m13,11.61c-.46.36-.46,52.07,0,52.41s11.45.22,12-.1l.38-.21V74.55c0-6.4,0-7,.29-7.15s1.87-.22,8.09-.23c8.1,0,8.6,0,8.82-.71q.07-.21,1.62-.3c1.41-.09,1.59-.13,1.93-.53a2.27,2.27,0,0,1,1.44-.64,3.31,3.31,0,0,0,1.47-.58,4.17,4.17,0,0,1,1-.63,1.4,1.4,0,0,0,.71-.58.79.79,0,0,1,.56-.42,2.87,2.87,0,0,0,1-.62c.32-.29.75-.64,1-.79a2.54,2.54,0,0,0,.65-.75,5,5,0,0,1,.66-.94,2.46,2.46,0,0,0,.49-.76,2.18,2.18,0,0,1,.59-.76,2.09,2.09,0,0,0,.66-1.11,2.59,2.59,0,0,1,.57-1.12,1.37,1.37,0,0,0,.42-1.15,4,4,0,0,1,.73-2.34c.61-.83.61-7.91,0-8.52a3.49,3.49,0,0,1-.73-2.18c0-.72-.41-1.74-.7-1.74-.07,0-.22-.34-.32-.76a1.91,1.91,0,0,0-.56-1,2.1,2.1,0,0,1-.6-.92,2.42,2.42,0,0,0-.63-1,2.55,2.55,0,0,1-.6-.7,1.53,1.53,0,0,0-.61-.57,1.61,1.61,0,0,1-.64-.63,1.24,1.24,0,0,0-.58-.52,3.72,3.72,0,0,1-1-.57,3.46,3.46,0,0,0-1-.59,1.36,1.36,0,0,1-.7-.5,2.19,2.19,0,0,0-1.64-.74,1.46,1.46,0,0,1-.81-.5c-.42-.47-.53-.5-1.62-.5s-2.33-.33-2.33-.63c0-.58-.64-.61-15.33-.66-12.17,0-14.46,0-14.71.18m29.27.85a2.77,2.77,0,0,0,2.35.76c.88,0,1.15.07,1.54.4a4.72,4.72,0,0,0,1.44.68,4.08,4.08,0,0,1,1.36.68,1.3,1.3,0,0,0,.66.41,1.44,1.44,0,0,1,.69.49,3,3,0,0,0,1,.69,3.28,3.28,0,0,1,1.12.76,2,2,0,0,0,.71.56c.09,0,.23.16.29.37a2.94,2.94,0,0,0,.56.88,3.62,3.62,0,0,1,.66,1,2.43,2.43,0,0,0,.7.87,1,1,0,0,1,.49,1,1.28,1.28,0,0,0,.47,1.08c.43.41.49.61.57,1.76a5.19,5.19,0,0,0,.52,2.15c.46.9.68,5.72.28,6.12a8,8,0,0,0-.84,3.07,1.68,1.68,0,0,1-.48,1.38,2.65,2.65,0,0,0-.6,1.36c-.08.56-.2.83-.41.88a1.51,1.51,0,0,0-.6.61,5.71,5.71,0,0,1-.74,1,10.7,10.7,0,0,0-.82,1,8,8,0,0,1-1.4,1.32,15.84,15.84,0,0,0-1.53,1.29,1.75,1.75,0,0,1-.82.54,2.58,2.58,0,0,0-1.42.74,2.2,2.2,0,0,1-1.08.37,1.94,1.94,0,0,0-1.3.59c-.4.43-.57.48-2,.58a3.61,3.61,0,0,0-2.22.58l-.7.47H209c-7.09,0-7.63,0-8.17.32l-.58.31,0,6.93c-.05,6.68-.06,6.94-.37,7.11a39,39,0,0,1-5.54.13l-5.22,0,0-25.59c0-14.07,0-25.67,0-25.79s3.08-.21,14.34-.21h14.26l.38.41m70.8,2.09c-.35.47-.36.63-.36,4.8,0,5.18.29,4.7-2.83,4.7-3.38,0-3.08-.44-3.14,4.65-.06,5.27-.33,4.85,3.12,4.85,1.85,0,2.52.06,2.66.22s.2,3.22.23,10.05l0,9.82.4.56a2.82,2.82,0,0,1,.47,1.42c.1,1.1.34,1.71.71,1.81.22.06.36.36.5,1a2.14,2.14,0,0,0,.33.94,9.09,9.09,0,0,1,1.33,1.15,8.66,8.66,0,0,0,1.89,1.43,3.58,3.58,0,0,1,1.07.68,1.25,1.25,0,0,0,1,.41c.93,0,1.3.14,1.48.55s.65.57,6,.59,5.71,0,6.31-.61a1.91,1.91,0,0,1,1.27-.5c1.2-.12,2.6-1.92,1.89-2.44a1.75,1.75,0,0,1-.35-.94c-.12-1-.37-1.63-.73-1.74s-.41-.4-.58-1.93c-.08-.78-.18-1-.59-1.3s-.49-.47-.49-.6c0-.71-1.68-.7-2.34,0s-4.19.62-4.92,0a3,3,0,0,0-1.06-.55c-.57-.14-.6-.18-.7-1a16.11,16.11,0,0,0-.38-1.91c-.35-1.31-.41-16.64-.06-16.87a43.74,43.74,0,0,1,4.61-.18c3.44,0,4.44-.11,4.62-.29.33-.32.33-8.52,0-9-.2-.26-.62-.29-4.41-.29a25.12,25.12,0,0,1-4.6-.19l-.43-.19v-4c0-6,.41-5.67-6.49-5.67h-5.11l-.37.5m10.77.87c.15.15.2,1.32.2,4.23,0,3.82,0,4,.35,4.46l.34.44h9.15l.17.44A28,28,0,0,1,310,47l0,3.77-4.73.08-4.72.09-.33.4c-.32.4-.32.66-.28,8.85l.06,8.44.46.66a2.77,2.77,0,0,1,.46,1.07c0,.73.18,1.12.63,1.34a4.84,4.84,0,0,1,1,.69c1,.89,5.67.85,6.62-.05.62-.6.75-.6,1,0a3.8,3.8,0,0,0,.56.91,2.76,2.76,0,0,1,.5,1.49c.1.84.21,1.12.59,1.47a3.72,3.72,0,0,1,.56,3.34c-.26.65-.29.67-1.42.86a2.6,2.6,0,0,0-1.65.68l-.5.48H304c-4.59,0-4.71,0-5.27-.38-1.08-.7-1.26-.78-1.9-.78a1.27,1.27,0,0,1-1-.4,3.36,3.36,0,0,0-1.67-.94.39.39,0,0,1-.33-.24,2.35,2.35,0,0,0-.77-.67c-.37-.24-.68-.53-.68-.66s-.21-.33-.48-.45-.5-.34-.58-1a1.74,1.74,0,0,0-.58-1.19c-.41-.37-.5-.61-.66-1.86a6.85,6.85,0,0,0-.57-2.14l-.38-.72L289,60.69c-.1-11.13.3-9.86-3.08-9.86a7,7,0,0,1-2.55-.2,45.68,45.68,0,0,1-.05-7.8l.11-.41,2.49-.05c3.35,0,3.08.37,3.08-4.79,0-2.23.05-4.17.1-4.32.13-.34,10.19-.4,10.53-.06M201,38.77c-.79.51-.81.79-.81,9.5v8.17l.43.41.43.4,6.94,0c7.21,0,8.05-.09,8.69-.72a2.93,2.93,0,0,1,.92-.53,2.34,2.34,0,0,0,.95-.69c.18-.25.44-.46.57-.46s.38-.22.53-.5a1.47,1.47,0,0,1,.57-.59,1.14,1.14,0,0,0,.47-.67,4.12,4.12,0,0,1,.57-1c1.06-1.26,1.07-6.58,0-7.71a2.78,2.78,0,0,1-.56-1,5.12,5.12,0,0,0-2.28-2.56c-.9-.18-1.09-.26-1.09-.48,0-.45-.59-.72-1.85-.81a4.81,4.81,0,0,1-2-.48c-1-.52-11.72-.7-12.5-.2m12.27,1c3.53.36,3.39.34,3.51.71a1.69,1.69,0,0,0,.89.66,3.4,3.4,0,0,1,1.19.85,11.48,11.48,0,0,0,.86,1,2.37,2.37,0,0,1,.56,1.09,2.45,2.45,0,0,0,.56,1.07c.42.41.43.48.48,2.94l.06,2.52-.5.55a2.73,2.73,0,0,0-.6,1.1,4.59,4.59,0,0,1-1.71,2.06c-.08,0-.27.22-.43.48a1.14,1.14,0,0,1-1,.59A2.13,2.13,0,0,0,216,56c-.57.58-1.67.66-9,.69-4.65,0-5.27,0-5.54-.26C201,56,201,40.81,201.43,40l.26-.5,4.78.06c2.63,0,5.68.17,6.78.28m37.43,1a1.77,1.77,0,0,0-.77.42,4.3,4.3,0,0,1-2.55.55,2.21,2.21,0,0,0-1.87.68,1.32,1.32,0,0,1-.87.32,2.38,2.38,0,0,0-1.66.75,1.13,1.13,0,0,1-.67.33c-.86.17-1.46.45-1.46.67a2.45,2.45,0,0,1-.42.82c-.36.55-.38.65-.17.87a3.78,3.78,0,0,1,.59,1.63,2.78,2.78,0,0,0,.5.71,1.91,1.91,0,0,1,.5,1,1.92,1.92,0,0,0,.48,1,2.93,2.93,0,0,1,.6,1.1c.34,1.56,2.08,2.41,3.05,1.49a3.25,3.25,0,0,1,1.16-.64,2,2,0,0,0,1-.59c.21-.32.45-.39,1.55-.49,1.33-.12,1.73-.28,1.91-.77.28-.75,8.46-.62,8.46.14,0,.28,1,.72,1.57.72a.89.89,0,0,1,.66.35,2.82,2.82,0,0,0,.76.67c.28.17.51.43.51.58A2.07,2.07,0,0,0,264,54c.49.56.5.61.45,2.1l0,1.53-7.17.09-7.17.08-1.1.44a12.5,12.5,0,0,1-2.25.62c-.89.14-1.22.27-1.48.59a1.7,1.7,0,0,1-1.1.52c-.58.08-.83.21-1,.51a2.47,2.47,0,0,1-.77.73c-.31.18-.56.44-.56.58s-.21.36-.46.49a1.79,1.79,0,0,0-.67.67c-.1.24-.27.43-.36.43-.37,0-.84.75-.84,1.35a1.71,1.71,0,0,1-.46,1.17l-.46.55-.05,3.35-.05,3.35.51.64A1.9,1.9,0,0,1,239.5,75c0,.63.44,1.31.84,1.31.1,0,.28.26.42.57a1.28,1.28,0,0,0,.56.68.73.73,0,0,1,.43.43,1,1,0,0,0,.47.51,2.81,2.81,0,0,1,.75.67c.21.26.47.48.58.48a1.88,1.88,0,0,1,.7.5,2.62,2.62,0,0,0,1.59.69,2.88,2.88,0,0,1,1.55.62l.46.44L253,82c5.8.06,6.32,0,7-.57a2.19,2.19,0,0,1,1.31-.52,1.89,1.89,0,0,0,1.35-.62,3.81,3.81,0,0,1,1-.72c.25-.11.46-.32.46-.46s.18-.33.4-.44a1.39,1.39,0,0,0,.58-.57c.44-1,.69-.48.69,1.43,0,2.7-.44,2.5,5.54,2.5,5.24,0,6.06-.1,6.22-.73.05-.21.07-6,0-12.78-.05-12.74-.07-12.94-.68-13.34a7.64,7.64,0,0,1-.28-2c-.11-1.81-.38-2.78-.84-3.07a2.11,2.11,0,0,1-.36-.84,4.75,4.75,0,0,0-.74-1.45,3.13,3.13,0,0,1-.57-.91c0-.1-.21-.32-.47-.47a2,2,0,0,1-.68-.76c-.12-.27-.32-.48-.44-.48s-.36-.2-.51-.43a2.58,2.58,0,0,0-.8-.69,6,6,0,0,1-1-.64,2.69,2.69,0,0,0-1-.5,2.63,2.63,0,0,1-1-.58c-.39-.39-.67-.48-1.71-.58s-1.31-.18-1.66-.56l-.41-.44-6.54,0a70.94,70.94,0,0,0-7.11.14m80.37,0a1.33,1.33,0,0,0-.54.48c-.13.25-.42.35-1.33.44a2.47,2.47,0,0,0-1.62.53,3.49,3.49,0,0,1-1.23.65,3,3,0,0,0-1.06.54,3.18,3.18,0,0,1-.92.61,1.85,1.85,0,0,0-.83.69c-.1.22-.29.4-.43.4s-.41.22-.62.5-.45.5-.54.5A6.93,6.93,0,0,0,320.17,48c0,.08-.23.32-.5.52s-.5.49-.5.64a1.73,1.73,0,0,1-.59.77A1.21,1.21,0,0,0,318,51a1.28,1.28,0,0,1-.58,1.09,1.31,1.31,0,0,0-.59,1.25,2.71,2.71,0,0,1-.81,2c-.34.26-.56,4.27-.43,8.06.12,3.53.17,3.87.76,4.6a1.91,1.91,0,0,1,.48,1.42c0,.7.06.85.46,1.1.63.4.7.54.71,1.25a1.08,1.08,0,0,0,.58,1.06c.32.25.59.55.59.69A5.81,5.81,0,0,0,321,75.33c.1,0,.19.12.19.26s.25.41.57.59a3.11,3.11,0,0,1,.84.75,1.85,1.85,0,0,0,.68.6c.22.11.41.26.41.34,0,.25.39.57.86.69a3.06,3.06,0,0,1,1,.53,4.26,4.26,0,0,0,1.35.67,3.48,3.48,0,0,1,1.18.58c.35.35.61.43,2,.58a1.81,1.81,0,0,1,1.37.55l.42.45,6.29,0c7,.06,7.49,0,8.22-.59a2.22,2.22,0,0,1,1.41-.51,1.59,1.59,0,0,0,1.29-.53,1.83,1.83,0,0,1,1.1-.57,2.23,2.23,0,0,0,1.28-.69,2.17,2.17,0,0,1,.8-.58,1,1,0,0,0,.53-.34,4.48,4.48,0,0,1,.91-.68c2.18-1.22,1.95-2.24-1.21-5.51a9.37,9.37,0,0,1-1.13-1.29c0-.07-.18-.22-.41-.35a2.41,2.41,0,0,1-.75-.77c-.5-.85-2.67-.76-2.67.11a2.49,2.49,0,0,1-.92.56c-.5.23-.91.48-.91.57s-.78.53-1.33.53a2.37,2.37,0,0,0-1.67.66c-.32.32-.54.34-3.74.34h-3.4L335,71.9a2.45,2.45,0,0,0-1.61-.53c-1-.08-1.1-.13-1.33-.55a1.72,1.72,0,0,0-.6-.67,7.42,7.42,0,0,1-1.8-1.79c0-.07-.19-.24-.41-.35a1.47,1.47,0,0,1-.6-1,2.65,2.65,0,0,0-.62-1.21c-.82-.77-1-.76,14.65-.76,9.9,0,14.94-.06,15.15-.17.76-.4.41-8.94-.37-9.2-.12,0-.25-.61-.32-1.45-.11-1.23-.18-1.44-.62-1.91a2.49,2.49,0,0,1-.62-1.19,2.06,2.06,0,0,0-.6-1.11,1.56,1.56,0,0,1-.48-.71c0-.14-.22-.42-.5-.62s-.5-.45-.5-.54a2.83,2.83,0,0,0-.62-.82c-1.71-1.76-2.09-2.11-2.31-2.11s-.35-.2-.5-.43a2.58,2.58,0,0,0-.8-.69,4.18,4.18,0,0,1-.9-.64,2.28,2.28,0,0,0-1.06-.5,1.9,1.9,0,0,1-1.08-.57c-.35-.39-.59-.48-1.55-.58s-1.23-.19-1.66-.6l-.51-.49h-5.71c-3.14,0-5.88.07-6.08.15m-67,1a3.48,3.48,0,0,0,1.85.54,1.93,1.93,0,0,1,1.49.5,2.16,2.16,0,0,0,1,.5,1.44,1.44,0,0,1,.87.5,2.38,2.38,0,0,0,1,.62,5.71,5.71,0,0,1,2.31,2.06c0,.09.18.25.4.35a.92.92,0,0,1,.5.73,2.33,2.33,0,0,0,.59,1,2.68,2.68,0,0,1,.67,1.31,3.09,3.09,0,0,0,.6,1.26c.38.4.42.6.51,2.42a16.23,16.23,0,0,0,.36,2.9c.23.79.27,2.53.32,12.79l.06,11.88-.43.16a42.77,42.77,0,0,1-5.16.17h-4.72l-.07-2c-.09-2.65-.9-3.48-1.75-1.8a1.22,1.22,0,0,1-.56.52.82.82,0,0,0-.44.46.9.9,0,0,1-.54.48,3.08,3.08,0,0,0-.91.58,4.65,4.65,0,0,1-2.33.78,1.73,1.73,0,0,0-.69.5l-.48.5h-5.12c-3.9,0-5.18,0-5.31-.21a5.88,5.88,0,0,1-.38-.5,1.68,1.68,0,0,0-1.09-.4,3.31,3.31,0,0,1-1.42-.49,6.86,6.86,0,0,0-1.15-.66,1.45,1.45,0,0,1-.71-.57,1.13,1.13,0,0,0-.59-.51c-.27-.11-.5-.3-.5-.42s-.26-.42-.58-.67-.58-.55-.58-.68-.22-.36-.49-.52-.51-.43-.61-1.12a3,3,0,0,0-.75-2c-.55-.52-.48-5.41.08-5.94a2.62,2.62,0,0,0,.62-1.54c.17-1,.29-1.22.66-1.49a1.65,1.65,0,0,0,.56-.63,1.1,1.1,0,0,1,.52-.5,1.23,1.23,0,0,0,.57-.6.89.89,0,0,1,.55-.51,1.34,1.34,0,0,0,.67-.57c.22-.38.43-.48,1.07-.55a1.6,1.6,0,0,0,1.15-.52c.31-.36.61-.45,2.3-.68a8.91,8.91,0,0,0,2.71-.68l.77-.41h6.5c7.63,0,7.12.12,7.11-1.74s-.21-2.68-.76-3.25c-.76-.79-1.3-1.36-1.46-1.51s-.28-.29-.46-.49a1.28,1.28,0,0,0-1.07-.35c-.64,0-.77,0-.91-.4-.27-.71-.6-.76-4.75-.76s-4.38,0-4.93.72c-.22.28-.55.37-1.58.45s-1.33.16-1.6.54a1.47,1.47,0,0,1-1,.54,2.07,2.07,0,0,0-1.15.6c-.56.6-.52.6-1.29-.15a2.25,2.25,0,0,1-.77-1.34,1.89,1.89,0,0,0-.6-1.15,1.36,1.36,0,0,1-.49-.83,2,2,0,0,0-.7-1.42c-.34-.12-.59-1.46-.4-2.13s.3-.77,1.1-.9a3.13,3.13,0,0,0,1.23-.58,3,3,0,0,1,1.4-.6c.89-.13,1.64-.48,1.75-.79,0-.14.58-.24,1.64-.31a5.42,5.42,0,0,0,2.32-.48c1.16-.6,1.73-.65,7.25-.62l5.16,0,1,.54m77.5-.46a2.67,2.67,0,0,1,1.22.33c.11.33,1,.67,1.75.67a1.63,1.63,0,0,1,1.29.49,3,3,0,0,0,1.16.58,2,2,0,0,1,1,.51,2.15,2.15,0,0,0,1,.53,1.1,1.1,0,0,1,.85.58,1.35,1.35,0,0,0,.59.58,3.85,3.85,0,0,1,1,.85c.38.41,1.18,1.24,1.78,1.86a6,6,0,0,1,1.21,1.54,2.24,2.24,0,0,0,.51.86,2.56,2.56,0,0,1,.52,1,4.59,4.59,0,0,0,.58,1.22,3.29,3.29,0,0,1,.57,1.81,3.17,3.17,0,0,0,.84,2.26c.22.18.26.75.26,3.78v3.56H342.58c-14.49,0-15,0-15.37.62-.26.39-.25.45.09,1,.19.33.55,1,.78,1.49a2.17,2.17,0,0,0,.75,1,.72.72,0,0,1,.43.44,4.72,4.72,0,0,0,1.82,1.78,1,1,0,0,1,.54.45c.18.48.59.7,1.29.71a1.42,1.42,0,0,1,1.12.45c1,1,8.52,1,9.55.06a2.33,2.33,0,0,1,1.37-.52,3.3,3.3,0,0,0,1.37-.48c.24-.19.68-.51,1-.7a2,2,0,0,0,.71-.75c.24-.63,1.39-.56,1.74.11a1.86,1.86,0,0,0,.58.67,1.59,1.59,0,0,1,.58.66,1.29,1.29,0,0,0,.58.58.77.77,0,0,1,.44.46,2.55,2.55,0,0,0,.55.8,10.11,10.11,0,0,1,1.85,2.38,2.08,2.08,0,0,1-.71.85c-.39.34-1,.86-1.29,1.17a3.28,3.28,0,0,1-.95.67.74.74,0,0,0-.46.42c-.06.19-.32.34-.72.41-.94.17-1.51.43-1.62.76s-.33.37-1.94.59a1.43,1.43,0,0,0-1.12.6l-.36.48h-12.8L332,81c-.37-.47-.52-.53-1.69-.65s-1.36-.2-1.73-.55a2.36,2.36,0,0,0-1.18-.55,1.78,1.78,0,0,1-1.13-.57,2,2,0,0,0-1-.57,2.34,2.34,0,0,1-1-.52L322.58,76A11.89,11.89,0,0,0,321,74.69a.65.65,0,0,1-.37-.44c0-.12-.23-.39-.5-.58s-.5-.46-.5-.58a1.61,1.61,0,0,0-.51-.7,2,2,0,0,1-.61-1.12,1.57,1.57,0,0,0-.9-1.3c-.14,0-.26-.52-.33-1.3-.1-1.09-.17-1.28-.59-1.62l-.48-.38V56l.54-.5a1.4,1.4,0,0,0,.55-1.32c0-1.11.12-1.48.58-1.72a1.54,1.54,0,0,0,.59-1,4,4,0,0,1,.69-1.32,2.12,2.12,0,0,0,.47-.79c0-.14.18-.33.4-.43a1.41,1.41,0,0,0,.58-.58,1.31,1.31,0,0,1,.56-.58,1.3,1.3,0,0,0,.55-.54,1.37,1.37,0,0,1,.56-.56,1.59,1.59,0,0,0,.63-.63c.13-.23.33-.42.45-.42s.42-.26.65-.56a1.53,1.53,0,0,1,1.11-.67c.38-.06.73-.23.78-.37a2,2,0,0,1,1.38-.74,1.9,1.9,0,0,0,.88-.47,2.16,2.16,0,0,1,1.51-.56,2.11,2.11,0,0,0,1.36-.45c.66-.62,7.22-1,10.51-.52m-7.5,8.28a3.36,3.36,0,0,0-2.25.81,2.71,2.71,0,0,1-.93.58c-.13,0-.32.17-.41.38a1.23,1.23,0,0,1-.54.54,1.45,1.45,0,0,0-.59.63,1.5,1.5,0,0,1-.62.65c-.29.13-.44.4-.59,1.07s-.3.92-.48,1c-.4.13-.67.8-.67,1.65,0,1.34-.61,1.27,10.05,1.27h9.44l.27-.52a3.34,3.34,0,0,0-.53-3.27,1.89,1.89,0,0,1-.56-.84,8.06,8.06,0,0,0-2.73-2.64,2.75,2.75,0,0,1-.86-.58c-.73-.7-5-1.07-8-.71m6.75.88c.32.18.9.48,1.28.67a10.78,10.78,0,0,1,3.15,3.08,1.7,1.7,0,0,0,.54.77c.38.3.43.46.44,1.45v1.12h-18.5l-.05-.7a1.07,1.07,0,0,1,.45-1.14,1.94,1.94,0,0,0,.61-1.12,1.71,1.71,0,0,1,.59-1.08,1.32,1.32,0,0,0,.48-.63c0-.13.22-.35.48-.48a1.31,1.31,0,0,0,.58-.52,2.28,2.28,0,0,1,.94-.61,2.23,2.23,0,0,0,.84-.48c0-.72,7-1,8.16-.33m-87.25,14c-.64.15-1.25.48-1.25.67s-.26.25-.59.37a1,1,0,0,0-.68.58,1.51,1.51,0,0,1-.63.7c-1.09.63-1.07,4.69,0,5a.72.72,0,0,1,.49.5,1.15,1.15,0,0,0,.57.65,1.27,1.27,0,0,1,.57.58c.12.37.08.36,2.6.73a9,9,0,0,0,2.75.11c.55-.08,1.54-.2,2.21-.26,1.09-.11,1.3-.18,1.82-.67a2.58,2.58,0,0,1,.94-.61.74.74,0,0,0,.5-.4,1.21,1.21,0,0,1,.5-.5,1.39,1.39,0,0,0,.57-.62,1.25,1.25,0,0,1,.47-.56c.5-.19.74-1.06.84-3,.18-3.52.51-3.35-6.14-3.32-2.78,0-5.28.07-5.56.13m10.9.66c.18.12.2.59.1,2.5L264.46,70l-.48.29c-.26.15-.48.36-.48.45a5.3,5.3,0,0,1-1.8,1.66,3.58,3.58,0,0,0-.88.56c-1.08.9-7.61.9-8.32,0a1.74,1.74,0,0,0-.63-.52,1,1,0,0,1-.46-.46,1.35,1.35,0,0,0-.49-.54c-.54-.29-.58-.43-.58-2.1s0-1.84.62-2.14a1.12,1.12,0,0,0,.47-.6c.07-.28.25-.42.65-.49a2.43,2.43,0,0,0,1-.5,3.37,3.37,0,0,1,.65-.49c.37-.15,10.54-.11,10.78,0" transform="translate(11.67 22.92)"/></g><rect class="cls-6" x="397.5" y="4.3" width="28.34" height="133.37"/><rect class="cls-6" width="28.34" height="133.37"/><rect class="cls-6" x="3.63" y="6.46" width="422.2" height="23.76"/><rect class="cls-6" x="3.63" y="121.49" width="422.2" height="23.76"/></svg>